<?xml version="1.0" encoding="utf-8"?>
<!-- Generator: Adobe Illustrator 28.0.0, SVG Export Plug-In . SVG Version: 6.00 Build 0)  -->
<svg version="1.1" id="Layer_1" xmlns="http://www.w3.org/2000/svg" xmlns:xlink="http://www.w3.org/1999/xlink" x="0px" y="0px"
	 viewBox="0 0 400 132" style="enable-background:new 0 0 400 132;" xml:space="preserve">
<style type="text/css">
	.st0{fill:#FFFFFF;}
</style>
<g>
	<path class="st0" d="M12.37,2.88c1.22,3.34,2.26,6.64,3.3,9.94L19,2.9c0.1-0.32,0.44-0.5,0.74-0.38c0.32,0.1,0.5,0.44,0.38,0.74
		L16.3,14.78c1.08,3.5,2.18,7,3.44,10.48L27.2,2.9c0.1-0.32,0.44-0.5,0.74-0.38c0.32,0.1,0.5,0.44,0.38,0.74l-8,24
		c-0.34,1.08-1.12,0.02-1.12,0.02c-1.32-3.52-2.46-7.04-3.56-10.56l-3.52,10.54c-0.34,1.08-1.12,0.02-1.12,0.02
		c-3-8-5.04-15.96-7.94-24.01c-0.12-0.3,0.04-0.66,0.36-0.76c0.3-0.12,0.66,0.04,0.76,0.36c2.74,7.56,4.7,14.98,7.36,22.38
		l3.5-10.48c-1.2-3.82-2.4-7.64-3.78-11.5c-0.12-0.3,0.04-0.66,0.36-0.76C11.91,2.4,12.27,2.56,12.37,2.88z"/>
	<path class="st0" d="M28.25,20.34c0,3.98,0.18,6.14,4.06,6.14c0.32,0,0.6,0.28,0.6,0.6s-0.28,0.6-0.6,0.6
		c-2.94,0-4.24-1.2-4.82-3.02c-0.68,1.66-2.02,3.02-4.58,3.02c-0.32,0-0.6-0.28-0.6-0.6s0.28-0.6,0.6-0.6
		c4.24,0,4.14-4.94,4.14-7.38c0-0.32,0.26-0.6,0.6-0.6c0.32,0,0.6,0.28,0.6,0.6c0,0.04,0,0.08,0,0.12s0,0.08,0,0.14
		c0,0.12,0,0.24,0,0.4C28.25,19.94,28.25,20.16,28.25,20.34z M26.49,14.2c0-0.66,0.54-1.2,1.2-1.2s1.2,0.54,1.2,1.2
		s-0.54,1.2-1.2,1.2S26.49,14.86,26.49,14.2z"/>
	<path class="st0" d="M44.01,23.38c0,0.74-0.26,1.52-0.76,2.22c0.42,0.48,1.14,0.88,3.14,0.88c0.32,0,0.6,0.28,0.6,0.6
		s-0.28,0.6-0.6,0.6c-2.14,0-3.26-0.52-3.94-1.2c-0.86,0.72-2.04,1.2-3.54,1.2c-1.36,0-2.82-0.98-2.82-2.92c0-0.04,0-0.06,0-0.1
		c-1.62,1.7-3.54,3.02-5.3,3.02c-0.32,0-0.6-0.28-0.6-0.6s0.28-0.6,0.6-0.6c1.24,0,3.04-1.12,4.64-2.86c1.1-1.2,2.06-2.64,2.7-4.04
		c-0.56-0.32-0.66-0.9-0.66-1.28c0-0.68,0.42-1.66,1.42-1.66c0.52,0,1.1,0.34,1.1,0.94c0,0.06,0,0.12-0.02,0.18
		c-0.06,0.36-0.16,0.72-0.28,1.06C42.21,19.66,44.01,21.1,44.01,23.38z M37.29,24.76c0,1.24,0.8,1.72,1.62,1.72
		c2.68,0,3.9-1.86,3.9-3.1c0-1.52-1.16-2.64-3.54-3.42c-0.64,1.48-1.62,2.96-2.74,4.22C36.93,24.1,37.29,24.38,37.29,24.76z"/>
	<path class="st0" d="M49.15,16.34c0-3.7,0.1-8.64,0.64-11.26c0.2-1.04,0.74-2.6,2.28-2.6c2.84,0,3.38,2.98,3.38,5.76
		c0,3.32-1,7.6-2.62,11.3c0.5-0.62,1.08-1.04,1.72-1.04c2.44,0,2.02,3.22,2.4,4.86c0.38,1.78,0.76,3.12,3.76,3.12
		c0.32,0,0.6,0.28,0.6,0.6s-0.28,0.6-0.6,0.6c-3.66,0-4.52-2.12-4.94-4.04c-0.58-2.6-0.22-3.94-1.22-3.94
		c-0.2,0-1.16,0.98-2.12,2.66c-0.98,1.72-1.84,3.8-1.92,4.42c0,0.1,0,0.2,0,0.3c0,0.32-0.28,0.6-0.6,0.6c-0.5,0-0.64-0.46-0.6-0.96
		c0-0.38-0.02-0.86-0.02-1.4c-1.3,1.4-2.78,2.36-4.42,2.36c-0.32,0-0.6-0.28-0.6-0.6s0.28-0.6,0.6-0.6c1.32,0,2.72-0.94,4.06-2.62
		c0.1-0.12,0.22-0.26,0.32-0.38C49.19,21.28,49.15,18.94,49.15,16.34z M54.25,8.24c0-2.92-0.58-4.56-2.18-4.56
		c-0.5,0-0.9,0.56-1.1,1.64c-0.5,2.42-0.62,7.46-0.62,11.02c0,1.86,0.02,3.7,0.06,5.34C52.69,17.72,54.25,12.12,54.25,8.24z"/>
	<path class="st0" d="M64.53,20.34c0,3.98,0.18,6.14,4.06,6.14c0.32,0,0.6,0.28,0.6,0.6s-0.28,0.6-0.6,0.6
		c-2.94,0-4.24-1.2-4.82-3.02c-0.68,1.66-2.02,3.02-4.58,3.02c-0.32,0-0.6-0.28-0.6-0.6s0.28-0.6,0.6-0.6
		c4.24,0,4.14-4.94,4.14-7.38c0-0.32,0.26-0.6,0.6-0.6c0.32,0,0.6,0.28,0.6,0.6c0,0.04,0,0.08,0,0.12s0,0.08,0,0.14
		c0,0.12,0,0.24,0,0.4C64.53,19.94,64.53,20.16,64.53,20.34z M62.77,14.2c0-0.66,0.54-1.2,1.2-1.2s1.2,0.54,1.2,1.2
		s-0.54,1.2-1.2,1.2S62.77,14.86,62.77,14.2z"/>
	<path class="st0" d="M74.99,26.26c-0.08-2.44-0.56-6.56-1.52-6.56c-0.72,0-1.26,0.76-1.7,2.2c-0.34,1.04-0.6,2.24-0.96,3.14
		c-0.6,1.38-1.64,2.64-3.74,2.64c-0.32,0-0.6-0.28-0.6-0.6s0.28-0.6,0.6-0.6c1.5,0,2.14-0.74,2.62-1.92c0.32-0.7,0.58-1.9,0.92-3.02
		c0.44-1.36,1.14-3.04,2.86-3.04c1.18,0,1.86,1.16,2.24,2.64c0.48-1.48,1.28-2.64,2.6-2.64c1.86,0,2.44,1.76,2.74,3.22
		c0.56,2.54,0.8,4.76,2.8,4.76c0.32,0,0.6,0.28,0.6,0.6s-0.28,0.6-0.6,0.6c-3.24,0-3.52-3.62-3.96-5.72
		c-0.34-1.54-0.72-2.26-1.58-2.26c-1.22,0-1.96,3.7-2.1,6.22c0,0.16,0,0.32,0,0.46c0,0.26,0,0.48,0,0.64c0,0.34-0.26,0.62-0.6,0.62
		C74.95,27.64,74.99,26.92,74.99,26.26z"/>
	<path class="st0" d="M97.9,26.08c0,0.22-0.14,0.44-0.36,0.54c-1.5,0.68-2.9,1.48-4.12,2.4c-0.28,8.72-0.84,14.7-3.76,14.7
		c-2.48,0-3.06-3.18-3.06-5c0-4.04,2.26-7.66,5.64-10.32c0.02-0.86,0.04-1.76,0.06-2.7c-0.7,1.22-1.72,1.98-3.22,1.98
		c-1.08,0-1.84-0.48-2.36-1.18c-1.26,0.94-3.08,1.18-4.38,1.18c-0.32,0-0.6-0.28-0.6-0.6s0.28-0.6,0.6-0.6
		c1.26,0,2.9-0.32,3.82-1.06c-0.28-0.76-0.4-1.6-0.4-2.34c0-3.06,1.74-4.58,3.68-4.58c1.04,0,2.08,0.44,2.88,1.18
		c0-0.16-0.02-0.38,0.02-0.52V19.1c0-0.32,0.28-0.6,0.6-0.6c0.32,0,0.6,0.28,0.6,0.6c0,3.08-0.02,5.9-0.08,8.42
		c1.1-0.74,2.32-1.42,3.6-1.98c0.08-0.04,0.16-0.06,0.24-0.06C97.59,25.48,97.9,25.72,97.9,26.08z M92.03,21.22
		c-0.56-0.94-1.62-1.52-2.6-1.52c-1.22,0-2.48,0.82-2.48,3.38c0,1.86,0.7,3.4,2.12,3.4c1.78,0,2.82-1.72,3.14-5.06
		C92.13,21.38,92.07,21.3,92.03,21.22z M87.79,38.73c0,1.94,0.72,3.8,1.86,3.8c1.1,0,2.2-3.62,2.52-12.5
		C89.43,32.44,87.79,35.46,87.79,38.73z"/>
	<path class="st0" d="M125.59,26.08c0,0.22-0.14,0.44-0.36,0.54c-1.36,0.62-2.6,1.34-3.72,2.14c-0.26,8.88-0.8,14.96-3.76,14.96
		c-2.48,0-3.06-3.18-3.06-5c0-4.16,2.18-7.88,5.64-10.56c0.02-0.44,0.02-0.86,0.04-1.32c-0.52,0.54-1.24,0.84-2.26,0.84
		c-1.68,0-2.32-2.4-2.58-4.14c-0.38-2.52-0.42-3.84-1.02-3.84c-0.64,0-0.92,1.4-1.5,3.8c-0.48,1.98-1.58,4.18-4.92,4.18
		c-0.32,0-0.6-0.28-0.6-0.6s0.28-0.6,0.6-0.6c2.62,0,3.3-1.46,3.76-3.28c0.42-1.76,0.6-4.7,2.66-4.7c2.14,0,1.94,3.16,2.2,4.86
		c0.32,1.98,1.06,3.12,1.4,3.12c1.68,0,2.2-1.1,2.32-4.42c0-0.96,0-1.94,0-2.96c0-0.32,0.28-0.6,0.6-0.6c0.32,0,0.6,0.28,0.6,0.6
		c0,0.38,0,0.74,0,1.12c0.02,0.04,0.02,0.08,0.02,0.14c0,2.3-0.04,4.8-0.1,6.92c0.98-0.66,2.06-1.24,3.2-1.74
		c0.08-0.04,0.16-0.06,0.24-0.06C125.29,25.48,125.59,25.72,125.59,26.08z M115.89,38.73c0,1.94,0.72,3.8,1.86,3.8
		c1.12,0,2.22-3.7,2.54-12.78C117.49,32.22,115.89,35.32,115.89,38.73z"/>
	<path class="st0" d="M133.55,19.84c0.56,0.5,1.24,1.66,1.24,3c0,2.68-1.18,4.84-4.2,4.84c-1.34,0-2.3-0.56-2.92-1.36
		c-0.98,0.88-3.9,1.38-4.18,1.38c-0.02,0-0.04,0-0.04,0s0.02-0.02,0.04-0.02c-0.32,0-0.6-0.28-0.6-0.6s0.28-0.6,0.6-0.6
		c1.26,0,2.88-0.5,3.56-1.24c-0.3-0.7-0.42-1.46-0.42-2.16c0-3.04,1.74-4.58,3.68-4.58c0.94,0,1.8,0.14,2.56,0.74
		c0.14,0.1,0.22,0.28,0.22,0.46C133.25,19.7,133.43,19.74,133.55,19.84z M132.11,20.16c-0.44-0.36-0.94-0.46-1.8-0.46
		c-1.22,0-2.48,0.82-2.48,3.38c0,1.74,0.84,3.4,2.76,3.4c2.22,0,3-1.28,3-3.64c0-0.94-0.56-1.86-0.82-2.08
		c-0.14-0.12-0.22-0.28-0.22-0.46C132.39,20.3,132.23,20.26,132.11,20.16z"/>
	<path class="st0" d="M140.85,19.98c0.04,3.28,0.46,6.5,2.86,6.5c2.64,0,2.88-3.68,2.9-7.18c0-0.06,0-0.14,0-0.2
		c0-0.32,0.26-0.6,0.6-0.6c0.32,0,0.6,0.28,0.6,0.6c0,0.06,0,0.14,0,0.2c0,4.78,0.14,7.18,4.08,7.18c0.32,0,0.6,0.28,0.6,0.6
		s-0.28,0.6-0.6,0.6c-2.7,0-4.02-1.08-4.68-2.8c-0.52,1.6-1.54,2.8-3.5,2.8c-2,0-3.02-1.3-3.54-3c-0.68,1.78-2,3-4.62,3
		c-0.32,0-0.6-0.28-0.6-0.6s0.28-0.6,0.6-0.6c3.48,0,4.04-2.5,4.1-6.38c-0.02-0.26-0.02-0.5-0.02-0.72c0-0.1,0-0.2,0-0.28
		c0-0.32,0.28-0.6,0.6-0.6c0.34,0,0.6,0.28,0.6,0.6c0,0.04,0,0.06,0,0.1C140.87,19.44,140.85,19.72,140.85,19.98z"/>
	<path class="st0" d="M178.01,27.68c-2.84,0-4.1-1.14-4.7-3.1c-0.62,1.98-1.78,3.1-3.76,3.1c-1.06,0-1.82-0.46-2.32-1.14
		c-1.38,0.8-3.28,1.14-4.54,1.14c-0.32,0-0.6-0.28-0.6-0.6s0.28-0.6,0.6-0.6c1.06,0,2.86-0.36,3.96-0.98
		c-0.3-0.8-0.42-1.66-0.42-2.42c0-3.06,1.74-4.58,3.68-4.58c1.02,0,2.04,0.42,2.82,1.12c0-0.16,0-0.34,0-0.52
		c0-0.32,0.26-0.6,0.6-0.6c0.32,0,0.6,0.28,0.6,0.6c0,0.06,0,0.12,0,0.18c0.2,5.26,0.3,7.2,4.08,7.2c0.32,0,0.6,0.28,0.6,0.6
		S178.33,27.68,178.01,27.68z M172.49,21.22c-0.54-0.94-1.6-1.52-2.58-1.52c-1.22,0-2.48,0.82-2.48,3.38c0,1.86,0.7,3.4,2.12,3.4
		c1.84,0,2.82-1.3,3.1-5.08C172.59,21.36,172.53,21.28,172.49,21.22z"/>
	<path class="st0" d="M194.97,23.3c1.32,2.12,3.08,3.18,5.52,3.18c0.32,0,0.6,0.28,0.6,0.6s-0.28,0.6-0.6,0.6
		c-2.64,0-4.76-1.16-6.22-3.28c-1.42,1.94-3.26,3.28-5.46,3.28c-0.32,0-0.6-0.28-0.6-0.6s0.28-0.6,0.6-0.6c1.8,0,3.42-1.16,4.78-3.2
		c-1.58-2.94-2.24-7.22-2.24-12.6c0-3.32,0.32-8.2,3.42-8.2c2.54,0,3.54,3.66,3.54,7.02C198.31,14.38,197.13,19.66,194.97,23.3z
		 M197.11,9.5c0-3.54-1.2-5.82-2.34-5.82c-1.52,0-2.22,3.2-2.22,7c0,4.86,0.58,8.7,1.76,11.36C196.09,18.68,197.11,13.88,197.11,9.5
		z"/>
	<path class="st0" d="M209.03,19.84c0.56,0.5,1.24,1.66,1.24,3c0,2.68-1.18,4.84-4.2,4.84c-1.34,0-2.3-0.56-2.92-1.36
		c-0.98,0.88-3.9,1.38-4.18,1.38c-0.02,0-0.04,0-0.04,0s0.02-0.02,0.04-0.02c-0.32,0-0.6-0.28-0.6-0.6s0.28-0.6,0.6-0.6
		c1.26,0,2.88-0.5,3.56-1.24c-0.3-0.7-0.42-1.46-0.42-2.16c0-3.04,1.74-4.58,3.68-4.58c0.94,0,1.8,0.14,2.56,0.74
		c0.14,0.1,0.22,0.28,0.22,0.46C208.73,19.7,208.91,19.74,209.03,19.84z M207.59,20.16c-0.44-0.36-0.94-0.46-1.8-0.46
		c-1.22,0-2.48,0.82-2.48,3.38c0,1.74,0.84,3.4,2.76,3.4c2.22,0,3-1.28,3-3.64c0-0.94-0.56-1.86-0.82-2.08
		c-0.14-0.12-0.22-0.28-0.22-0.46C207.87,20.3,207.71,20.26,207.59,20.16z"/>
	<path class="st0" d="M224.15,19.12c0.22,0,0.42,0.12,0.54,0.32c0.38,0.72,0.52,1.56,0.52,2.4c0,2.56-1.42,5.84-3.76,5.84
		c-1.76,0-1.94-2.56-2.18-4.16c-0.36-2.34-0.78-3.82-1.42-3.82c-0.62,0-0.88,1.4-1.5,3.82c-0.82,3.12-2.46,4.16-5.32,4.16
		c-0.32,0-0.6-0.28-0.6-0.6s0.28-0.6,0.6-0.6c2.46,0,3.46-0.56,4.16-3.28c0.46-1.74,0.6-4.7,2.66-4.7c2.08,0,2.34,3,2.62,4.86
		c0.32,2.12,0.7,3.12,0.98,3.12c1.1,0,2.56-2.2,2.56-4.64c0-0.72-0.14-1.36-0.38-1.84c-0.06-0.08-0.08-0.18-0.08-0.28
		C223.55,19.42,223.79,19.12,224.15,19.12z"/>
	<path class="st0" d="M238.05,26.08c0,0.22-0.12,0.44-0.34,0.54c-1.8,0.84-2.84,1.04-4.06,1.04c-1.04,0-2.02-0.36-2.8-0.98
		c-1.08,0.62-2.42,1-3.98,1c-0.32,0-0.6-0.28-0.6-0.6s0.28-0.6,0.6-0.6c1.24,0,2.26-0.26,3.12-0.68c-0.88-1.12-1.36-2.64-1.36-4.26
		c0-1.96,1.18-3.36,2.78-3.36c1.74,0,2.66,1.44,2.66,3.16c0,1.64-0.74,3.38-2.18,4.62c0.52,0.32,1.12,0.5,1.76,0.5
		c1.06,0,1.82-0.12,3.56-0.92c0.08-0.04,0.16-0.06,0.24-0.06C237.75,25.48,238.05,25.72,238.05,26.08z M232.87,21.34
		c0-1.36-0.56-1.96-1.46-1.96c-0.78,0-1.58,0.64-1.58,2.16c0,1.44,0.44,2.72,1.16,3.6C232.23,24.12,232.87,22.68,232.87,21.34z"/>
	<path class="st0" d="M242.09,23.3c1.32,2.12,3.08,3.18,5.52,3.18c0.32,0,0.6,0.28,0.6,0.6s-0.28,0.6-0.6,0.6
		c-2.64,0-4.76-1.16-6.22-3.28c-1.42,1.94-3.26,3.28-5.46,3.28c-0.32,0-0.6-0.28-0.6-0.6s0.28-0.6,0.6-0.6c1.8,0,3.42-1.16,4.78-3.2
		c-1.58-2.94-2.24-7.22-2.24-12.6c0-3.32,0.32-8.2,3.42-8.2c2.54,0,3.54,3.66,3.54,7.02C245.43,14.38,244.25,19.66,242.09,23.3z
		 M244.23,9.5c0-3.54-1.2-5.82-2.34-5.82c-1.52,0-2.22,3.2-2.22,7c0,4.86,0.58,8.7,1.76,11.36C243.21,18.68,244.23,13.88,244.23,9.5
		z"/>
	<path class="st0" d="M263.59,26.08c0,0.22-0.14,0.44-0.36,0.54c-1.36,0.62-2.6,1.34-3.72,2.14c-0.26,8.88-0.8,14.96-3.76,14.96
		c-2.48,0-3.06-3.18-3.06-5c0-4.16,2.18-7.88,5.64-10.56c0.02-0.44,0.02-0.86,0.04-1.32c-0.52,0.54-1.24,0.84-2.26,0.84
		c-1.68,0-2.32-2.4-2.58-4.14c-0.38-2.52-0.42-3.84-1.02-3.84c-0.64,0-0.92,1.4-1.5,3.8c-0.48,1.98-1.58,4.18-4.92,4.18
		c-0.32,0-0.6-0.28-0.6-0.6s0.28-0.6,0.6-0.6c2.62,0,3.3-1.46,3.76-3.28c0.42-1.76,0.6-4.7,2.66-4.7c2.14,0,1.94,3.16,2.2,4.86
		c0.32,1.98,1.06,3.12,1.4,3.12c1.68,0,2.2-1.1,2.32-4.42c0-0.96,0-1.94,0-2.96c0-0.32,0.28-0.6,0.6-0.6c0.32,0,0.6,0.28,0.6,0.6
		c0,0.38,0,0.74,0,1.12c0.02,0.04,0.02,0.08,0.02,0.14c0,2.3-0.04,4.8-0.1,6.92c0.98-0.66,2.06-1.24,3.2-1.74
		c0.08-0.04,0.16-0.06,0.24-0.06C263.29,25.48,263.59,25.72,263.59,26.08z M253.89,38.73c0,1.94,0.72,3.8,1.86,3.8
		c1.12,0,2.22-3.7,2.54-12.78C255.49,32.22,253.89,35.32,253.89,38.73z"/>
	<path class="st0" d="M289.13,7.92c-0.28-2.34-2.16-4.22-5.04-4.22c-4.7,0-6.76,6.46-6.76,12.8c0,7.42,2.88,9.98,7.16,9.98
		c1.58,0,4.06-0.8,5.48-2.76c0.18-0.26,0.56-0.32,0.84-0.12c0.26,0.18,0.32,0.56,0.12,0.84c-1.7,2.36-4.52,3.24-6.44,3.24
		c-5.06,0-8.36-3.4-8.36-11.18c0-6.24,1.94-14,7.96-14c3.46,0,5.88,2.32,6.24,5.26c0.04,0.34-0.2,0.64-0.52,0.68
		C289.47,8.48,289.17,8.24,289.13,7.92z"/>
	<path class="st0" d="M295.25,16.34c0-3.7,0.1-8.64,0.64-11.26c0.2-1.04,0.74-2.6,2.28-2.6c2.84,0,3.38,2.98,3.38,5.76
		c0,3.32-1,7.6-2.62,11.3c0.5-0.62,1.08-1.04,1.72-1.04c2.44,0,2.02,3.22,2.4,4.86c0.38,1.78,0.76,3.12,3.76,3.12
		c0.32,0,0.6,0.28,0.6,0.6s-0.28,0.6-0.6,0.6c-3.66,0-4.52-2.12-4.94-4.04c-0.58-2.6-0.22-3.94-1.22-3.94
		c-0.2,0-1.16,0.98-2.12,2.66c-0.98,1.72-1.84,3.8-1.92,4.42c0,0.1,0,0.2,0,0.3c0,0.32-0.28,0.6-0.6,0.6c-0.5,0-0.64-0.46-0.6-0.96
		c0-0.38-0.02-0.86-0.02-1.4c-1.3,1.4-2.78,2.36-4.42,2.36c-0.32,0-0.6-0.28-0.6-0.6s0.28-0.6,0.6-0.6c1.32,0,2.72-0.94,4.06-2.62
		c0.1-0.12,0.22-0.26,0.32-0.38C295.29,21.28,295.25,18.94,295.25,16.34z M300.35,8.24c0-2.92-0.58-4.56-2.18-4.56
		c-0.5,0-0.9,0.56-1.1,1.64c-0.5,2.42-0.62,7.46-0.62,11.02c0,1.86,0.02,3.7,0.06,5.34C298.79,17.72,300.35,12.12,300.35,8.24z"/>
	<path class="st0" d="M318.89,27.68c-3.7,0-4.28-2.32-4.28-5.32c0-1.42-0.1-2.66-2-2.66c-0.02,0-0.04,0-0.04,0
		c-0.78,0-1.4-0.1-1.84-0.24c0,0.12,0,0.16,0,0.26c0,4.28-1.42,7.96-5.44,7.96c-0.32,0-0.6-0.28-0.6-0.6s0.28-0.6,0.6-0.6
		c2.96,0,4.24-2.56,4.24-6.76c0-0.54-0.06-1.14-0.22-1.76c-0.22-0.64,0.86-0.96,1.16-0.32c0.06,0.14,0.22,0.86,2.1,0.86
		c0,0,0.02,0,0.04,0c2.96,0,3.2,2.48,3.2,3.86c0,2.92,0.24,4.12,3.08,4.12c0.32,0,0.6,0.28,0.6,0.6S319.21,27.68,318.89,27.68z"/>
	<path class="st0" d="M322.71,20.34c0,3.98,0.18,6.14,4.06,6.14c0.32,0,0.6,0.28,0.6,0.6s-0.28,0.6-0.6,0.6
		c-2.94,0-4.24-1.2-4.82-3.02c-0.68,1.66-2.02,3.02-4.58,3.02c-0.32,0-0.6-0.28-0.6-0.6s0.28-0.6,0.6-0.6
		c4.24,0,4.14-4.94,4.14-7.38c0-0.32,0.26-0.6,0.6-0.6c0.32,0,0.6,0.28,0.6,0.6c0,0.04,0,0.08,0,0.12s0,0.08,0,0.14
		c0,0.12,0,0.24,0,0.4C322.71,19.94,322.71,20.16,322.71,20.34z M320.95,14.2c0-0.66,0.54-1.2,1.2-1.2s1.2,0.54,1.2,1.2
		s-0.54,1.2-1.2,1.2S320.95,14.86,320.95,14.2z"/>
	<path class="st0" d="M338.47,23.38c0,0.74-0.26,1.52-0.76,2.22c0.42,0.48,1.14,0.88,3.14,0.88c0.32,0,0.6,0.28,0.6,0.6
		s-0.28,0.6-0.6,0.6c-2.14,0-3.26-0.52-3.94-1.2c-0.86,0.72-2.04,1.2-3.54,1.2c-1.36,0-2.82-0.98-2.82-2.92c0-0.04,0-0.06,0-0.1
		c-1.62,1.7-3.54,3.02-5.3,3.02c-0.32,0-0.6-0.28-0.6-0.6s0.28-0.6,0.6-0.6c1.24,0,3.04-1.12,4.64-2.86c1.1-1.2,2.06-2.64,2.7-4.04
		c-0.56-0.32-0.66-0.9-0.66-1.28c0-0.68,0.42-1.66,1.42-1.66c0.52,0,1.1,0.34,1.1,0.94c0,0.06,0,0.12-0.02,0.18
		c-0.06,0.36-0.16,0.72-0.28,1.06C336.67,19.66,338.47,21.1,338.47,23.38z M331.75,24.76c0,1.24,0.8,1.72,1.62,1.72
		c2.68,0,3.9-1.86,3.9-3.1c0-1.52-1.16-2.64-3.54-3.42c-0.64,1.48-1.62,2.96-2.74,4.22C331.39,24.1,331.75,24.38,331.75,24.76z"/>
	<path class="st0" d="M349.57,27.68c-2.98,0-4.42-2.3-5.1-5.5c-0.66,3.28-2.08,5.5-5.14,5.5c-0.32,0-0.6-0.28-0.6-0.6
		s0.28-0.6,0.6-0.6c3.48,0,4.26-4.18,4.44-10.36h-0.16c-0.34,0-0.6-0.28-0.6-0.6c0-0.32,0.26-0.6,0.6-0.6h0.2
		c0.02-1.22,0.02-2.6,0.02-3.86c0-0.32,0.26-0.6,0.6-0.6c0.32,0,0.6,0.28,0.6,0.6c0,0.06,0,0.12,0,0.2c0,0.04,0,0.1,0,0.14
		c0,1.2,0,2.38,0.02,3.52h4.28c0.34,0,0.6,0.28,0.6,0.6c0,0.32-0.26,0.6-0.6,0.6h-4.24c0.2,5.74,1.06,10.36,4.48,10.36
		c0.32,0,0.6,0.28,0.6,0.6S349.89,27.68,349.57,27.68z"/>
	<path class="st0" d="M362.43,27.08c0,0.32-0.26,0.6-0.6,0.6c-0.32,0-0.58-0.26-0.6-0.6c-0.02-1.64-0.18-3.6-0.54-5.1
		c-0.42-1.64-1-2.28-1.38-2.28c-0.48,0-1.16,0.72-1.64,2.32c-0.46,1.5-0.68,3.22-0.68,4.8c0,0.06,0,0.1,0,0.14s0,0.1,0,0.14
		c0,0.32-0.28,0.6-0.6,0.6c-0.34,0-0.6-0.28-0.6-0.6c-0.02-1-0.02-3.48-0.3-5.16c-0.28-1.62-0.78-2.24-1.04-2.24
		c-0.72,0-1.26,0.78-1.72,2.2c-0.32,1.06-0.56,2.24-0.94,3.14c-0.58,1.38-1.66,2.64-3.74,2.64c-0.32,0-0.6-0.28-0.6-0.6
		s0.28-0.6,0.6-0.6c1.5,0,2.14-0.74,2.64-1.92c0.3-0.7,0.54-1.9,0.9-3.02c0.44-1.36,1.16-3.04,2.86-3.04c1.4,0,1.9,1.56,2.16,2.9
		c0.48-1.48,1.26-2.9,2.7-2.9c1.42,0,2.08,1.5,2.48,2.98c0.36-1.42,1.06-2.98,2.56-2.98c1.86,0,2.44,1.76,2.76,3.22
		c0.54,2.56,0.78,4.76,2.78,4.76c0.32,0,0.6,0.28,0.6,0.6s-0.28,0.6-0.6,0.6c-3.24,0-3.5-3.62-3.96-5.72
		c-0.34-1.54-0.74-2.26-1.58-2.26c-0.5,0-1.08,0.72-1.46,2.28c-0.36,1.52-0.46,3.42-0.46,4.58c0,0.06,0,0.12,0,0.16
		C362.43,26.84,362.43,26.96,362.43,27.08z"/>
	<path class="st0" d="M383.69,27.68c-2.84,0-4.1-1.14-4.7-3.1c-0.62,1.98-1.78,3.1-3.76,3.1c-1.06,0-1.82-0.46-2.32-1.14
		c-1.38,0.8-3.28,1.14-4.54,1.14c-0.32,0-0.6-0.28-0.6-0.6s0.28-0.6,0.6-0.6c1.06,0,2.86-0.36,3.96-0.98
		c-0.3-0.8-0.42-1.66-0.42-2.42c0-3.06,1.74-4.58,3.68-4.58c1.02,0,2.04,0.42,2.82,1.12c0-0.16,0-0.34,0-0.52
		c0-0.32,0.26-0.6,0.6-0.6c0.32,0,0.6,0.28,0.6,0.6c0,0.06,0,0.12,0,0.18c0.2,5.26,0.3,7.2,4.08,7.2c0.32,0,0.6,0.28,0.6,0.6
		S384.01,27.68,383.69,27.68z M378.17,21.22c-0.54-0.94-1.6-1.52-2.58-1.52c-1.22,0-2.48,0.82-2.48,3.38c0,1.86,0.7,3.4,2.12,3.4
		c1.84,0,2.82-1.3,3.1-5.08C378.27,21.36,378.21,21.28,378.17,21.22z"/>
	<path class="st0" d="M395.39,23.38c0,0.74-0.26,1.52-0.76,2.22c0.42,0.48,1.14,0.88,3.14,0.88c0.32,0,0.6,0.28,0.6,0.6
		s-0.28,0.6-0.6,0.6c-2.14,0-3.26-0.52-3.94-1.2c-0.86,0.72-2.04,1.2-3.54,1.2c-1.36,0-2.82-0.98-2.82-2.92c0-0.04,0-0.06,0-0.1
		c-1.62,1.7-3.54,3.02-5.3,3.02c-0.32,0-0.6-0.28-0.6-0.6s0.28-0.6,0.6-0.6c1.24,0,3.04-1.12,4.64-2.86c1.1-1.2,2.06-2.64,2.7-4.04
		c-0.56-0.32-0.66-0.9-0.66-1.28c0-0.68,0.42-1.66,1.42-1.66c0.52,0,1.1,0.34,1.1,0.94c0,0.06,0,0.12-0.02,0.18
		c-0.06,0.36-0.16,0.72-0.28,1.06C393.59,19.66,395.39,21.1,395.39,23.38z M388.67,24.76c0,1.24,0.8,1.72,1.62,1.72
		c2.68,0,3.9-1.86,3.9-3.1c0-1.52-1.16-2.64-3.54-3.42c-0.64,1.48-1.62,2.96-2.74,4.22C388.31,24.1,388.67,24.38,388.67,24.76z"/>
	<path class="st0" d="M88.71,66.7c0,3.62-0.84,6.02-3.34,6.02c-2.12,0-2.4-3.84-2.6-7.18c-0.18-2.86-0.2-6.16-0.2-8.82
		c0-0.32,0-0.64,0-0.94c-1.02,0.56-2.14,0.9-3.38,0.9c-0.32,0-0.6-0.28-0.6-0.6s0.28-0.6,0.6-0.6c1.26,0,2.38-0.4,3.38-1.14
		c0.02-0.84,0.02-1.72,0.02-2.2V50.7c0-1.22-0.06-3.88-0.06-6.78c0-2.22,0.04-4.6,0.16-6.66c0.14-2.16,0.38-5.8,3-5.8
		c3.2,0,3.72,4.34,3.72,6.96c0,5.72-1.56,12.22-4.86,15.76c0.02,0,0.06,0.02,0.08,0.04c0.42,0.38,2.42,1.26,5.74,1.26
		c0.34,0,0.6,0.28,0.6,0.6s-0.26,0.6-0.6,0.6c-1.66,0-3.02-0.18-4.08-0.46C87.81,58.94,88.71,63.58,88.71,66.7z M88.21,38.42
		c0-2.9-0.74-5.76-2.52-5.76c-1.16,0-1.64,2.06-1.8,4.68c-0.12,2.02-0.16,4.36-0.16,6.58c0,2.9,0.06,5.52,0.06,6.78v1.44
		c0,0.28,0,0.66,0,1.1C86.67,50.04,88.21,43.9,88.21,38.42z M83.77,56.72c0,2.66,0.02,5.92,0.2,8.74c0.24,3.98,0.96,6.06,1.4,6.06
		c1.34,0,2.14-1.12,2.14-4.82c0-4.26-2.04-10.84-3.68-11.46c-0.02,0-0.04-0.02-0.06-0.02C83.77,55.68,83.77,56.2,83.77,56.72z"/>
	<path class="st0" d="M94.19,49.34c0,3.98,0.18,6.14,4.06,6.14c0.32,0,0.6,0.28,0.6,0.6s-0.28,0.6-0.6,0.6
		c-2.94,0-4.24-1.2-4.82-3.02c-0.68,1.66-2.02,3.02-4.58,3.02c-0.32,0-0.6-0.28-0.6-0.6s0.28-0.6,0.6-0.6
		c4.24,0,4.14-4.94,4.14-7.38c0-0.32,0.26-0.6,0.6-0.6c0.32,0,0.6,0.28,0.6,0.6c0,0.04,0,0.08,0,0.12s0,0.08,0,0.14
		c0,0.12,0,0.24,0,0.4C94.19,48.94,94.19,49.16,94.19,49.34z M92.43,43.2c0-0.66,0.54-1.2,1.2-1.2s1.2,0.54,1.2,1.2
		s-0.54,1.2-1.2,1.2S92.43,43.86,92.43,43.2z"/>
	<path class="st0" d="M102.89,52.3c1.32,2.12,3.08,3.18,5.52,3.18c0.32,0,0.6,0.28,0.6,0.6s-0.28,0.6-0.6,0.6
		c-2.64,0-4.76-1.16-6.22-3.28c-1.42,1.94-3.26,3.28-5.46,3.28c-0.32,0-0.6-0.28-0.6-0.6s0.28-0.6,0.6-0.6c1.8,0,3.42-1.16,4.78-3.2
		c-1.58-2.94-2.24-7.22-2.24-12.6c0-3.32,0.32-8.2,3.42-8.2c2.54,0,3.54,3.66,3.54,7.02C106.23,43.38,105.05,48.66,102.89,52.3z
		 M105.03,38.5c0-3.54-1.2-5.82-2.34-5.82c-1.52,0-2.22,3.2-2.22,7c0,4.86,0.58,8.7,1.76,11.36
		C104.01,47.68,105.03,42.88,105.03,38.5z"/>
	<path class="st0" d="M113.05,52.3c1.32,2.12,3.08,3.18,5.52,3.18c0.32,0,0.6,0.28,0.6,0.6s-0.28,0.6-0.6,0.6
		c-2.64,0-4.76-1.16-6.22-3.28c-1.42,1.94-3.26,3.28-5.46,3.28c-0.32,0-0.6-0.28-0.6-0.6s0.28-0.6,0.6-0.6c1.8,0,3.42-1.16,4.78-3.2
		c-1.58-2.94-2.24-7.22-2.24-12.6c0-3.32,0.32-8.2,3.42-8.2c2.54,0,3.54,3.66,3.54,7.02C116.39,43.38,115.21,48.66,113.05,52.3z
		 M115.19,38.5c0-3.54-1.2-5.82-2.34-5.82c-1.52,0-2.22,3.2-2.22,7c0,4.86,0.58,8.7,1.76,11.36
		C114.17,47.68,115.19,42.88,115.19,38.5z"/>
	<path class="st0" d="M128.23,55.08c0,0.22-0.12,0.44-0.34,0.54c-1.8,0.84-2.84,1.04-4.06,1.04c-1.04,0-2.02-0.36-2.8-0.98
		c-1.08,0.62-2.42,1-3.98,1c-0.32,0-0.6-0.28-0.6-0.6s0.28-0.6,0.6-0.6c1.24,0,2.26-0.26,3.12-0.68c-0.88-1.12-1.36-2.64-1.36-4.26
		c0-1.96,1.18-3.36,2.78-3.36c1.74,0,2.66,1.44,2.66,3.16c0,1.64-0.74,3.38-2.18,4.62c0.52,0.32,1.12,0.5,1.76,0.5
		c1.06,0,1.82-0.12,3.56-0.92c0.08-0.04,0.16-0.06,0.24-0.06C127.93,54.48,128.23,54.72,128.23,55.08z M123.05,50.34
		c0-1.36-0.56-1.96-1.46-1.96c-0.78,0-1.58,0.64-1.58,2.16c0,1.44,0.44,2.72,1.16,3.6C122.41,53.12,123.05,51.68,123.05,50.34z"/>
	<path class="st0" d="M126.11,55.48c1.18,0,3.16-0.62,3.9-1.16c-0.26-0.74-0.36-1.54-0.36-2.24c0-3.04,1.74-4.58,3.68-4.58
		c0.92,0,1.86,0.34,2.62,0.94c0.18-2.44,0.2-5.3,0.2-8.18c0-0.02,0-0.04,0-0.04c0-0.06,0-0.1,0-0.16c0-0.32,0.28-0.6,0.6-0.6
		c0.32,0,0.6,0.28,0.6,0.6v0.32c0,12.3,0.14,15.1,4.08,15.1c0.32,0,0.6,0.28,0.6,0.6s-0.28,0.6-0.6,0.6c-2.88,0-4.2-1.34-4.78-4.42
		c-0.56,2.5-1.58,4.42-3.68,4.42c-1.12,0-1.9-0.52-2.42-1.26c-1.16,0.8-3.12,1.26-4.44,1.26c-0.32,0-0.6-0.28-0.6-0.6
		S125.79,55.48,126.11,55.48z M133.33,48.7c-1.22,0-2.48,0.82-2.48,3.38c0,1.84,0.68,3.4,2.12,3.4c1.44,0,2.38-1.82,2.82-5.48
		C135.23,49.22,134.25,48.7,133.33,48.7z"/>
	<path class="st0" d="M167.23,56.7c-1.32-0.02-2.08-1.06-2.5-2.4c-0.44,1.46-1.22,2.38-2.68,2.38c-1.16,0-1.62-1.02-1.84-1.9
		c-0.2-0.88-0.28-1.94-0.44-2.92c-0.34-2.08-0.78-3.16-1.32-3.16s-0.78,1.06-1.28,3.24c-0.56,2.44-1.06,4.74-4.94,4.74
		c-0.32,0-0.6-0.28-0.6-0.6s0.28-0.6,0.6-0.6c3.12,0,3.18-1.3,3.76-3.82c0.38-1.58,0.54-4.16,2.46-4.16c1.9,0,2.24,2.48,2.5,4.16
		c0.16,1.06,0.26,2.1,0.44,2.84c0.2,0.84,0.42,0.98,0.66,0.98c1.04,0,1.64-0.82,1.88-3.68c0.08-1,0.1-1.82,0.12-3.16c0,0,0,0,0-0.02
		c0-0.06,0-0.12,0-0.18c0-0.32,0.26-0.6,0.6-0.6c0.32,0,0.6,0.28,0.6,0.6c0,1.22,0.04,2.14,0.18,3.28c0.3,2.48,0.98,3.76,1.82,3.78
		c0.74,0,1.8-0.98,2.28-2.74c0.16-0.58,0.26-1.26,0.26-1.9c0-0.7-0.12-1.36-0.38-1.84c-0.04-0.08-0.06-0.18-0.06-0.28
		c0-0.3,0.24-0.6,0.58-0.6c0.22,0,0.44,0.12,0.54,0.32c0.38,0.72,0.52,1.56,0.52,2.4C170.99,53.66,169.51,56.7,167.23,56.7z"/>
	<path class="st0" d="M178.01,49.34c0,3.98,0.18,6.14,4.06,6.14c0.32,0,0.6,0.28,0.6,0.6s-0.28,0.6-0.6,0.6
		c-2.94,0-4.24-1.2-4.82-3.02c-0.68,1.66-2.02,3.02-4.58,3.02c-0.32,0-0.6-0.28-0.6-0.6s0.28-0.6,0.6-0.6
		c4.24,0,4.14-4.94,4.14-7.38c0-0.32,0.26-0.6,0.6-0.6c0.32,0,0.6,0.28,0.6,0.6c0,0.04,0,0.08,0,0.12s0,0.08,0,0.14
		c0,0.12,0,0.24,0,0.4C178.01,48.94,178.01,49.16,178.01,49.34z M176.25,43.2c0-0.66,0.54-1.2,1.2-1.2c0.66,0,1.2,0.54,1.2,1.2
		s-0.54,1.2-1.2,1.2C176.79,44.4,176.25,43.86,176.25,43.2z"/>
	<path class="st0" d="M190.79,56.68c-2.98,0-4.42-2.3-5.1-5.5c-0.66,3.28-2.08,5.5-5.14,5.5c-0.32,0-0.6-0.28-0.6-0.6
		s0.28-0.6,0.6-0.6c3.48,0,4.26-4.18,4.44-10.36h-0.16c-0.34,0-0.6-0.28-0.6-0.6s0.26-0.6,0.6-0.6h0.2c0.02-1.22,0.02-2.6,0.02-3.86
		c0-0.32,0.26-0.6,0.6-0.6c0.32,0,0.6,0.28,0.6,0.6c0,0.06,0,0.12,0,0.2c0,0.04,0,0.1,0,0.14c0,1.2,0,2.38,0.02,3.52h4.28
		c0.34,0,0.6,0.28,0.6,0.6s-0.26,0.6-0.6,0.6h-4.24c0.2,5.74,1.06,10.36,4.48,10.36c0.32,0,0.6,0.28,0.6,0.6
		S191.11,56.68,190.79,56.68z"/>
	<path class="st0" d="M193.55,45.34c0-3.7,0.1-8.64,0.64-11.26c0.2-1.04,0.74-2.6,2.28-2.6c2.84,0,3.38,2.98,3.38,5.76
		c0,3.32-1,7.6-2.62,11.3c0.5-0.62,1.08-1.04,1.72-1.04c2.44,0,2.02,3.22,2.4,4.86c0.38,1.78,0.76,3.12,3.76,3.12
		c0.32,0,0.6,0.28,0.6,0.6s-0.28,0.6-0.6,0.6c-3.66,0-4.52-2.12-4.94-4.04c-0.58-2.6-0.22-3.94-1.22-3.94
		c-0.2,0-1.16,0.98-2.12,2.66c-0.98,1.72-1.84,3.8-1.92,4.42c0,0.1,0,0.2,0,0.3c0,0.32-0.28,0.6-0.6,0.6c-0.5,0-0.64-0.46-0.6-0.96
		c0-0.38-0.02-0.86-0.02-1.4c-1.3,1.4-2.78,2.36-4.42,2.36c-0.32,0-0.6-0.28-0.6-0.6s0.28-0.6,0.6-0.6c1.32,0,2.72-0.94,4.06-2.62
		c0.1-0.12,0.22-0.26,0.32-0.38C193.59,50.28,193.55,47.94,193.55,45.34z M198.65,37.24c0-2.92-0.58-4.56-2.18-4.56
		c-0.5,0-0.9,0.56-1.1,1.64c-0.5,2.42-0.62,7.46-0.62,11.02c0,1.86,0.02,3.7,0.06,5.34C197.09,46.72,198.65,41.12,198.65,37.24z"/>
	<path class="st0" d="M229.13,52.38c0,0.74-0.26,1.52-0.76,2.22c0.42,0.48,1.14,0.88,3.14,0.88c0.32,0,0.6,0.28,0.6,0.6
		s-0.28,0.6-0.6,0.6c-2.14,0-3.26-0.52-3.94-1.2c-0.86,0.72-2.04,1.2-3.54,1.2c-1.36,0-2.82-0.98-2.82-2.92c0-0.04,0-0.06,0-0.1
		c-1.62,1.7-3.54,3.02-5.3,3.02c-0.32,0-0.6-0.28-0.6-0.6s0.28-0.6,0.6-0.6c1.24,0,3.04-1.12,4.64-2.86c1.1-1.2,2.06-2.64,2.7-4.04
		c-0.56-0.32-0.66-0.9-0.66-1.28c0-0.68,0.42-1.66,1.42-1.66c0.52,0,1.1,0.34,1.1,0.94c0,0.06,0,0.12-0.02,0.18
		c-0.06,0.36-0.16,0.72-0.28,1.06C227.33,48.66,229.13,50.1,229.13,52.38z M222.41,53.76c0,1.24,0.8,1.72,1.62,1.72
		c2.68,0,3.9-1.86,3.9-3.1c0-1.52-1.16-2.64-3.54-3.42c-0.64,1.48-1.62,2.96-2.74,4.22C222.05,53.1,222.41,53.38,222.41,53.76z"/>
	<path class="st0" d="M241.17,55.08c0,0.22-0.12,0.44-0.34,0.54c-1.8,0.84-2.84,1.04-4.06,1.04c-1.04,0-2.02-0.36-2.8-0.98
		c-1.08,0.62-2.42,1-3.98,1c-0.32,0-0.6-0.28-0.6-0.6s0.28-0.6,0.6-0.6c1.24,0,2.26-0.26,3.12-0.68c-0.88-1.12-1.36-2.64-1.36-4.26
		c0-1.96,1.18-3.36,2.78-3.36c1.74,0,2.66,1.44,2.66,3.16c0,1.64-0.74,3.38-2.18,4.62c0.52,0.32,1.12,0.5,1.76,0.5
		c1.06,0,1.82-0.12,3.56-0.92c0.08-0.04,0.16-0.06,0.24-0.06C240.87,54.48,241.17,54.72,241.17,55.08z M235.99,50.34
		c0-1.36-0.56-1.96-1.46-1.96c-0.78,0-1.58,0.64-1.58,2.16c0,1.44,0.44,2.72,1.16,3.6C235.35,53.12,235.99,51.68,235.99,50.34z"/>
	<path class="st0" d="M252.65,56.68c-3.7,0-4.28-2.32-4.28-5.32c0-1.42-0.1-2.66-2-2.66c-0.02,0-0.04,0-0.04,0
		c-0.78,0-1.4-0.1-1.84-0.24c0,0.12,0,0.16,0,0.26c0,4.28-1.42,7.96-5.44,7.96c-0.32,0-0.6-0.28-0.6-0.6s0.28-0.6,0.6-0.6
		c2.96,0,4.24-2.56,4.24-6.76c0-0.54-0.06-1.14-0.22-1.76c-0.22-0.64,0.86-0.96,1.16-0.32c0.06,0.14,0.22,0.86,2.1,0.86
		c0,0,0.02,0,0.04,0c2.96,0,3.2,2.48,3.2,3.86c0,2.92,0.24,4.12,3.08,4.12c0.32,0,0.6,0.28,0.6,0.6S252.97,56.68,252.65,56.68z"/>
	<path class="st0" d="M262.31,55.08c0,0.22-0.12,0.44-0.34,0.54c-1.8,0.84-2.84,1.04-4.06,1.04c-1.04,0-2.02-0.36-2.8-0.98
		c-1.08,0.62-2.42,1-3.98,1c-0.32,0-0.6-0.28-0.6-0.6s0.28-0.6,0.6-0.6c1.24,0,2.26-0.26,3.12-0.68c-0.88-1.12-1.36-2.64-1.36-4.26
		c0-1.96,1.18-3.36,2.78-3.36c1.74,0,2.66,1.44,2.66,3.16c0,1.64-0.74,3.38-2.18,4.62c0.52,0.32,1.12,0.5,1.76,0.5
		c1.06,0,1.82-0.12,3.56-0.92c0.08-0.04,0.16-0.06,0.24-0.06C262.01,54.48,262.31,54.72,262.31,55.08z M257.13,50.34
		c0-1.36-0.56-1.96-1.46-1.96c-0.78,0-1.58,0.64-1.58,2.16c0,1.44,0.44,2.72,1.16,3.6C256.49,53.12,257.13,51.68,257.13,50.34z"/>
	<path class="st0" d="M268.11,55.26c-0.08-2.44-0.56-6.56-1.52-6.56c-0.72,0-1.26,0.76-1.7,2.2c-0.34,1.04-0.6,2.24-0.96,3.14
		c-0.6,1.38-1.64,2.64-3.74,2.64c-0.32,0-0.6-0.28-0.6-0.6s0.28-0.6,0.6-0.6c1.5,0,2.14-0.74,2.62-1.92c0.32-0.7,0.58-1.9,0.92-3.02
		c0.44-1.36,1.14-3.04,2.86-3.04c1.18,0,1.86,1.16,2.24,2.64c0.48-1.48,1.28-2.64,2.6-2.64c1.86,0,2.44,1.76,2.74,3.22
		c0.56,2.54,0.8,4.76,2.8,4.76c0.32,0,0.6,0.28,0.6,0.6s-0.28,0.6-0.6,0.6c-3.24,0-3.52-3.62-3.96-5.72
		c-0.34-1.54-0.72-2.26-1.58-2.26c-1.22,0-1.96,3.7-2.1,6.22c0,0.16,0,0.32,0,0.46c0,0.26,0,0.48,0,0.64c0,0.34-0.26,0.62-0.6,0.62
		C268.07,56.64,268.11,55.92,268.11,55.26z"/>
	<path class="st0" d="M280.79,49.34c0,3.98,0.18,6.14,4.06,6.14c0.32,0,0.6,0.28,0.6,0.6s-0.28,0.6-0.6,0.6
		c-2.94,0-4.24-1.2-4.82-3.02c-0.68,1.66-2.02,3.02-4.58,3.02c-0.32,0-0.6-0.28-0.6-0.6s0.28-0.6,0.6-0.6
		c4.24,0,4.14-4.94,4.14-7.38c0-0.32,0.26-0.6,0.6-0.6c0.32,0,0.6,0.28,0.6,0.6c0,0.04,0,0.08,0,0.12s0,0.08,0,0.14
		c0,0.12,0,0.24,0,0.4C280.79,48.94,280.79,49.16,280.79,49.34z M279.03,43.2c0-0.66,0.54-1.2,1.2-1.2s1.2,0.54,1.2,1.2
		s-0.54,1.2-1.2,1.2S279.03,43.86,279.03,43.2z"/>
	<path class="st0" d="M293.57,56.68c-2.98,0-4.42-2.3-5.1-5.5c-0.66,3.28-2.08,5.5-5.14,5.5c-0.32,0-0.6-0.28-0.6-0.6
		s0.28-0.6,0.6-0.6c3.48,0,4.26-4.18,4.44-10.36h-0.16c-0.34,0-0.6-0.28-0.6-0.6s0.26-0.6,0.6-0.6h0.2c0.02-1.22,0.02-2.6,0.02-3.86
		c0-0.32,0.26-0.6,0.6-0.6c0.32,0,0.6,0.28,0.6,0.6c0,0.06,0,0.12,0,0.2c0,0.04,0,0.1,0,0.14c0,1.2,0,2.38,0.02,3.52h4.28
		c0.34,0,0.6,0.28,0.6,0.6s-0.26,0.6-0.6,0.6h-4.24c0.2,5.74,1.06,10.36,4.48,10.36c0.32,0,0.6,0.28,0.6,0.6
		S293.89,56.68,293.57,56.68z"/>
	<path class="st0" d="M309.55,55.08c0,0.22-0.14,0.44-0.36,0.54c-1.36,0.62-2.6,1.34-3.72,2.14c-0.26,8.88-0.8,14.96-3.76,14.96
		c-2.48,0-3.06-3.18-3.06-5c0-4.16,2.18-7.88,5.64-10.56c0.02-0.44,0.02-0.86,0.04-1.32c-0.52,0.54-1.24,0.84-2.26,0.84
		c-1.68,0-2.32-2.4-2.58-4.14c-0.38-2.52-0.42-3.84-1.02-3.84c-0.64,0-0.92,1.4-1.5,3.8c-0.48,1.98-1.58,4.18-4.92,4.18
		c-0.32,0-0.6-0.28-0.6-0.6s0.28-0.6,0.6-0.6c2.62,0,3.3-1.46,3.76-3.28c0.42-1.76,0.6-4.7,2.66-4.7c2.14,0,1.94,3.16,2.2,4.86
		c0.32,1.98,1.06,3.12,1.4,3.12c1.68,0,2.2-1.1,2.32-4.42c0-0.96,0-1.94,0-2.96c0-0.32,0.28-0.6,0.6-0.6c0.32,0,0.6,0.28,0.6,0.6
		c0,0.38,0,0.74,0,1.12c0.02,0.04,0.02,0.08,0.02,0.14c0,2.3-0.04,4.8-0.1,6.92c0.98-0.66,2.06-1.24,3.2-1.74
		c0.08-0.04,0.16-0.06,0.24-0.06C309.25,54.48,309.55,54.72,309.55,55.08z M299.85,67.72c0,1.94,0.72,3.8,1.86,3.8
		c1.12,0,2.22-3.7,2.54-12.78C301.45,61.22,299.85,64.32,299.85,67.72z"/>
	<path class="st0" d="M25.43,85.68c-2.84,0-4.1-1.14-4.7-3.1c-0.62,1.98-1.78,3.1-3.76,3.1c-1.06,0-1.82-0.46-2.32-1.14
		c-1.38,0.8-3.28,1.14-4.54,1.14c-0.32,0-0.6-0.28-0.6-0.6s0.28-0.6,0.6-0.6c1.06,0,2.86-0.36,3.96-0.98
		c-0.3-0.8-0.42-1.66-0.42-2.42c0-3.06,1.74-4.58,3.68-4.58c1.02,0,2.04,0.42,2.82,1.12c0-0.16,0-0.34,0-0.52
		c0-0.32,0.26-0.6,0.6-0.6c0.32,0,0.6,0.28,0.6,0.6c0,0.06,0,0.12,0,0.18c0.2,5.26,0.3,7.2,4.08,7.2c0.32,0,0.6,0.28,0.6,0.6
		S25.75,85.68,25.43,85.68z M19.9,79.22c-0.54-0.94-1.6-1.52-2.58-1.52c-1.22,0-2.48,0.82-2.48,3.38c0,1.86,0.7,3.4,2.12,3.4
		c1.84,0,2.82-1.3,3.1-5.08C20,79.36,19.94,79.28,19.9,79.22z"/>
	<path class="st0" d="M31.82,84.26c-0.08-2.44-0.56-6.56-1.52-6.56c-0.72,0-1.26,0.76-1.7,2.2c-0.34,1.04-0.6,2.24-0.96,3.14
		c-0.6,1.38-1.64,2.64-3.74,2.64c-0.32,0-0.6-0.28-0.6-0.6s0.28-0.6,0.6-0.6c1.5,0,2.14-0.74,2.62-1.92c0.32-0.7,0.58-1.9,0.92-3.02
		c0.44-1.36,1.14-3.04,2.86-3.04c1.18,0,1.86,1.16,2.24,2.64c0.48-1.48,1.28-2.64,2.6-2.64c1.86,0,2.44,1.76,2.74,3.22
		c0.56,2.54,0.8,4.76,2.8,4.76c0.32,0,0.6,0.28,0.6,0.6s-0.28,0.6-0.6,0.6c-3.24,0-3.52-3.62-3.96-5.72
		c-0.34-1.54-0.72-2.26-1.58-2.26c-1.22,0-1.96,3.7-2.1,6.22c0,0.16,0,0.32,0,0.46c0,0.26,0,0.48,0,0.64c0,0.34-0.26,0.62-0.6,0.62
		C31.78,85.64,31.82,84.92,31.82,84.26z"/>
	<path class="st0" d="M39.16,84.48c1.18,0,3.16-0.62,3.9-1.16c-0.26-0.74-0.36-1.54-0.36-2.24c0-3.04,1.74-4.58,3.68-4.58
		c0.92,0,1.86,0.34,2.62,0.94c0.18-2.44,0.2-5.3,0.2-8.18c0-0.02,0-0.04,0-0.04c0-0.06,0-0.1,0-0.16c0-0.32,0.28-0.6,0.6-0.6
		c0.32,0,0.6,0.28,0.6,0.6v0.32c0,12.3,0.14,15.1,4.08,15.1c0.32,0,0.6,0.28,0.6,0.6s-0.28,0.6-0.6,0.6c-2.88,0-4.2-1.34-4.78-4.42
		c-0.56,2.5-1.58,4.42-3.68,4.42c-1.12,0-1.9-0.52-2.42-1.26c-1.16,0.8-3.12,1.26-4.44,1.26c-0.32,0-0.6-0.28-0.6-0.6
		S38.84,84.48,39.16,84.48z M46.38,77.7c-1.22,0-2.48,0.82-2.48,3.38c0,1.84,0.68,3.4,2.12,3.4c1.44,0,2.38-1.82,2.82-5.48
		C48.28,78.22,47.3,77.7,46.38,77.7z"/>
	<path class="st0" d="M78.5,81.38c0,0.74-0.26,1.52-0.76,2.22c0.42,0.48,1.14,0.88,3.14,0.88c0.32,0,0.6,0.28,0.6,0.6
		s-0.28,0.6-0.6,0.6c-2.14,0-3.26-0.52-3.94-1.2c-0.86,0.72-2.04,1.2-3.54,1.2c-1.36,0-2.82-0.98-2.82-2.92c0-0.04,0-0.06,0-0.1
		c-1.62,1.7-3.54,3.02-5.3,3.02c-0.32,0-0.6-0.28-0.6-0.6s0.28-0.6,0.6-0.6c1.24,0,3.04-1.12,4.64-2.86c1.1-1.2,2.06-2.64,2.7-4.04
		c-0.56-0.32-0.66-0.9-0.66-1.28c0-0.68,0.42-1.66,1.42-1.66c0.52,0,1.1,0.34,1.1,0.94c0,0.06,0,0.12-0.02,0.18
		c-0.06,0.36-0.16,0.72-0.28,1.06C76.7,77.66,78.5,79.1,78.5,81.38z M71.78,82.76c0,1.24,0.8,1.72,1.62,1.72
		c2.68,0,3.9-1.86,3.9-3.1c0-1.52-1.16-2.64-3.54-3.42c-0.64,1.48-1.62,2.96-2.74,4.22C71.42,82.1,71.78,82.38,71.78,82.76z"/>
	<path class="st0" d="M84.66,77.98c0.04,3.28,0.46,6.5,2.86,6.5c2.64,0,2.88-3.68,2.9-7.18c0-0.06,0-0.14,0-0.2
		c0-0.32,0.26-0.6,0.6-0.6c0.32,0,0.6,0.28,0.6,0.6c0,0.06,0,0.14,0,0.2c0,4.78,0.14,7.18,4.08,7.18c0.32,0,0.6,0.28,0.6,0.6
		s-0.28,0.6-0.6,0.6c-2.7,0-4.02-1.08-4.68-2.8c-0.52,1.6-1.54,2.8-3.5,2.8c-2,0-3.02-1.3-3.54-3c-0.68,1.78-2,3-4.62,3
		c-0.32,0-0.6-0.28-0.6-0.6s0.28-0.6,0.6-0.6c3.48,0,4.04-2.5,4.1-6.38c-0.02-0.26-0.02-0.5-0.02-0.72c0-0.1,0-0.2,0-0.28
		c0-0.32,0.28-0.6,0.6-0.6c0.34,0,0.6,0.28,0.6,0.6c0,0.04,0,0.06,0,0.1C84.68,77.44,84.66,77.72,84.66,77.98z"/>
	<path class="st0" d="M107.78,85.68c-3.7,0-4.28-2.32-4.28-5.32c0-1.42-0.1-2.66-2-2.66c-0.02,0-0.04,0-0.04,0
		c-0.78,0-1.4-0.1-1.84-0.24c0,0.12,0,0.16,0,0.26c0,4.28-1.42,7.96-5.44,7.96c-0.32,0-0.6-0.28-0.6-0.6s0.28-0.6,0.6-0.6
		c2.96,0,4.24-2.56,4.24-6.76c0-0.54-0.06-1.14-0.22-1.76c-0.22-0.64,0.86-0.96,1.16-0.32c0.06,0.14,0.22,0.86,2.1,0.86
		c0,0,0.02,0,0.04,0c2.96,0,3.2,2.48,3.2,3.86c0,2.92,0.24,4.12,3.08,4.12c0.32,0,0.6,0.28,0.6,0.6S108.1,85.68,107.78,85.68z"/>
	<path class="st0" d="M119.86,85.68c-3.7,0-4.28-2.32-4.28-5.32c0-1.42-0.1-2.66-2-2.66c-0.02,0-0.04,0-0.04,0
		c-0.78,0-1.4-0.1-1.84-0.24c0,0.12,0,0.16,0,0.26c0,4.28-1.42,7.96-5.44,7.96c-0.32,0-0.6-0.28-0.6-0.6s0.28-0.6,0.6-0.6
		c2.96,0,4.24-2.56,4.24-6.76c0-0.54-0.06-1.14-0.22-1.76c-0.22-0.64,0.86-0.96,1.16-0.32c0.06,0.14,0.22,0.86,2.1,0.86
		c0,0,0.02,0,0.04,0c2.96,0,3.2,2.48,3.2,3.86c0,2.92,0.24,4.12,3.08,4.12c0.32,0,0.6,0.28,0.6,0.6S120.18,85.68,119.86,85.68z"/>
	<path class="st0" d="M128.4,77.84c0.56,0.5,1.24,1.66,1.24,3c0,2.68-1.18,4.84-4.2,4.84c-1.34,0-2.3-0.56-2.92-1.36
		c-0.98,0.88-3.9,1.38-4.18,1.38c-0.02,0-0.04,0-0.04,0s0.02-0.02,0.04-0.02c-0.32,0-0.6-0.28-0.6-0.6s0.28-0.6,0.6-0.6
		c1.26,0,2.88-0.5,3.56-1.24c-0.3-0.7-0.42-1.46-0.42-2.16c0-3.04,1.74-4.58,3.68-4.58c0.94,0,1.8,0.14,2.56,0.74
		c0.14,0.1,0.22,0.28,0.22,0.46C128.1,77.7,128.28,77.74,128.4,77.84z M126.96,78.16c-0.44-0.36-0.94-0.46-1.8-0.46
		c-1.22,0-2.48,0.82-2.48,3.38c0,1.74,0.84,3.4,2.76,3.4c2.22,0,3-1.28,3-3.64c0-0.94-0.56-1.86-0.82-2.08
		c-0.14-0.12-0.22-0.28-0.22-0.46C127.24,78.3,127.08,78.26,126.96,78.16z"/>
	<path class="st0" d="M135.7,77.98c0.04,3.28,0.46,6.5,2.86,6.5c2.64,0,2.88-3.68,2.9-7.18c0-0.06,0-0.14,0-0.2
		c0-0.32,0.26-0.6,0.6-0.6c0.32,0,0.6,0.28,0.6,0.6c0,0.06,0,0.14,0,0.2c0,4.78,0.14,7.18,4.08,7.18c0.32,0,0.6,0.28,0.6,0.6
		s-0.28,0.6-0.6,0.6c-2.7,0-4.02-1.08-4.68-2.8c-0.52,1.6-1.54,2.8-3.5,2.8c-2,0-3.02-1.3-3.54-3c-0.68,1.78-2,3-4.62,3
		c-0.32,0-0.6-0.28-0.6-0.6s0.28-0.6,0.6-0.6c3.48,0,4.04-2.5,4.1-6.38c-0.02-0.26-0.02-0.5-0.02-0.72c0-0.1,0-0.2,0-0.28
		c0-0.32,0.28-0.6,0.6-0.6c0.34,0,0.6,0.28,0.6,0.6c0,0.04,0,0.06,0,0.1C135.72,77.44,135.7,77.72,135.7,77.98z"/>
	<path class="st0" d="M153.14,84.26c-0.08-2.44-0.56-6.56-1.52-6.56c-0.72,0-1.26,0.76-1.7,2.2c-0.34,1.04-0.6,2.24-0.96,3.14
		c-0.6,1.38-1.64,2.64-3.74,2.64c-0.32,0-0.6-0.28-0.6-0.6s0.28-0.6,0.6-0.6c1.5,0,2.14-0.74,2.62-1.92c0.32-0.7,0.58-1.9,0.92-3.02
		c0.44-1.36,1.14-3.04,2.86-3.04c1.18,0,1.86,1.16,2.24,2.64c0.48-1.48,1.28-2.64,2.6-2.64c1.86,0,2.44,1.76,2.74,3.22
		c0.56,2.54,0.8,4.76,2.8,4.76c0.32,0,0.6,0.28,0.6,0.6s-0.28,0.6-0.6,0.6c-3.24,0-3.52-3.62-3.96-5.72
		c-0.34-1.54-0.72-2.26-1.58-2.26c-1.22,0-1.96,3.7-2.1,6.22c0,0.16,0,0.32,0,0.46c0,0.26,0,0.48,0,0.64c0,0.34-0.26,0.62-0.6,0.62
		C153.1,85.64,153.14,84.92,153.14,84.26z"/>
	<path class="st0" d="M160.48,84.48c1.18,0,3.16-0.62,3.9-1.16c-0.26-0.74-0.36-1.54-0.36-2.24c0-3.04,1.74-4.58,3.68-4.58
		c0.92,0,1.86,0.34,2.62,0.94c0.18-2.44,0.2-5.3,0.2-8.18c0-0.02,0-0.04,0-0.04c0-0.06,0-0.1,0-0.16c0-0.32,0.28-0.6,0.6-0.6
		c0.32,0,0.6,0.28,0.6,0.6v0.32c0,12.3,0.14,15.1,4.08,15.1c0.32,0,0.6,0.28,0.6,0.6s-0.28,0.6-0.6,0.6c-2.88,0-4.2-1.34-4.78-4.42
		c-0.56,2.5-1.58,4.42-3.68,4.42c-1.12,0-1.9-0.52-2.42-1.26c-1.16,0.8-3.12,1.26-4.44,1.26c-0.32,0-0.6-0.28-0.6-0.6
		S160.16,84.48,160.48,84.48z M167.7,77.7c-1.22,0-2.48,0.82-2.48,3.38c0,1.84,0.68,3.4,2.12,3.4c1.44,0,2.38-1.82,2.82-5.48
		C169.6,78.22,168.62,77.7,167.7,77.7z"/>
	<path class="st0" d="M185.46,84.08c0,0.22-0.12,0.44-0.34,0.54c-1.8,0.84-2.84,1.04-4.06,1.04c-1.04,0-2.02-0.36-2.8-0.98
		c-1.08,0.62-2.42,1-3.98,1c-0.32,0-0.6-0.28-0.6-0.6s0.28-0.6,0.6-0.6c1.24,0,2.26-0.26,3.12-0.68c-0.88-1.12-1.36-2.64-1.36-4.26
		c0-1.96,1.18-3.36,2.78-3.36c1.74,0,2.66,1.44,2.66,3.16c0,1.64-0.74,3.38-2.18,4.62c0.52,0.32,1.12,0.5,1.76,0.5
		c1.06,0,1.82-0.12,3.56-0.92c0.08-0.04,0.16-0.06,0.24-0.06C185.16,83.48,185.46,83.72,185.46,84.08z M180.28,79.34
		c0-1.36-0.56-1.96-1.46-1.96c-0.78,0-1.58,0.64-1.58,2.16c0,1.44,0.44,2.72,1.16,3.6C179.64,82.12,180.28,80.68,180.28,79.34z"/>
	<path class="st0" d="M183.34,84.48c1.18,0,3.16-0.62,3.9-1.16c-0.26-0.74-0.36-1.54-0.36-2.24c0-3.04,1.74-4.58,3.68-4.58
		c0.92,0,1.86,0.34,2.62,0.94c0.18-2.44,0.2-5.3,0.2-8.18c0-0.02,0-0.04,0-0.04c0-0.06,0-0.1,0-0.16c0-0.32,0.28-0.6,0.6-0.6
		c0.32,0,0.6,0.28,0.6,0.6v0.32c0,12.3,0.14,15.1,4.08,15.1c0.32,0,0.6,0.28,0.6,0.6s-0.28,0.6-0.6,0.6c-2.88,0-4.2-1.34-4.78-4.42
		c-0.56,2.5-1.58,4.42-3.68,4.42c-1.12,0-1.9-0.52-2.42-1.26c-1.16,0.8-3.12,1.26-4.44,1.26c-0.32,0-0.6-0.28-0.6-0.6
		S183.02,84.48,183.34,84.48z M190.56,77.7c-1.22,0-2.48,0.82-2.48,3.38c0,1.84,0.68,3.4,2.12,3.4c1.44,0,2.38-1.82,2.82-5.48
		C192.46,78.22,191.48,77.7,190.56,77.7z"/>
	<path class="st0" d="M211.26,67.8c0-2.66,0.04-7.32,3.28-7.32c2.98,0,3.14,4.74,3.14,7.14c0,3.84-0.76,8.56-2.38,12.24
		c-0.34,0.78-0.66,1.48-1.02,2.18c0.58,1.64,1.64,2.46,2.2,2.46c1.54,0,2.76-1.16,2.76-3.58c0-0.94-0.2-1.94-0.58-2.84
		c-0.02-0.06-0.04-0.14-0.04-0.22c0-0.3,0.24-0.6,0.6-0.6c0.24,0,0.46,0.14,0.56,0.38c0.44,1.04,0.66,2.18,0.66,3.28
		c0,2.84-1.62,4.78-3.96,4.78c-1.18,0-2.26-1.02-2.96-2.38c-0.98,1.38-2.24,2.36-4.06,2.36c-0.32,0-0.6-0.28-0.6-0.6
		s0.28-0.6,0.6-0.6c1.58,0,2.58-0.94,3.5-2.56C211.76,78.08,211.26,72.12,211.26,67.8z M214.2,79.38c1.52-3.46,2.28-8.08,2.28-11.76
		c0-2.9-0.56-5.94-1.94-5.94c-1.7,0-2.08,2.96-2.08,6.12c0,3.76,0.4,8.94,1.3,12.54C213.92,80.04,214.06,79.7,214.2,79.38z"/>
	<path class="st0" d="M239.3,84.08c0,0.22-0.14,0.44-0.36,0.54c-1.36,0.62-2.6,1.34-3.72,2.14c-0.26,8.88-0.8,14.96-3.76,14.96
		c-2.48,0-3.06-3.18-3.06-5c0-4.16,2.18-7.88,5.64-10.56c0.02-0.44,0.02-0.86,0.04-1.32c-0.52,0.54-1.24,0.84-2.26,0.84
		c-1.68,0-2.32-2.4-2.58-4.14c-0.38-2.52-0.42-3.84-1.02-3.84c-0.64,0-0.92,1.4-1.5,3.8c-0.48,1.98-1.58,4.18-4.92,4.18
		c-0.32,0-0.6-0.28-0.6-0.6s0.28-0.6,0.6-0.6c2.62,0,3.3-1.46,3.76-3.28c0.42-1.76,0.6-4.7,2.66-4.7c2.14,0,1.94,3.16,2.2,4.86
		c0.32,1.98,1.06,3.12,1.4,3.12c1.68,0,2.2-1.1,2.32-4.42c0-0.96,0-1.94,0-2.96c0-0.32,0.28-0.6,0.6-0.6c0.32,0,0.6,0.28,0.6,0.6
		c0,0.38,0,0.74,0,1.12c0.02,0.04,0.02,0.08,0.02,0.14c0,2.3-0.04,4.8-0.1,6.92c0.98-0.66,2.06-1.24,3.2-1.74
		c0.08-0.04,0.16-0.06,0.24-0.06C239,83.48,239.3,83.72,239.3,84.08z M229.6,96.72c0,1.94,0.72,3.8,1.86,3.8
		c1.12,0,2.22-3.7,2.54-12.78C231.2,90.22,229.6,93.32,229.6,96.72z"/>
	<path class="st0" d="M255.68,81.3c1.32,2.12,3.08,3.18,5.52,3.18c0.32,0,0.6,0.28,0.6,0.6s-0.28,0.6-0.6,0.6
		c-2.64,0-4.76-1.16-6.22-3.28c-1.42,1.94-3.26,3.28-5.46,3.28c-0.32,0-0.6-0.28-0.6-0.6s0.28-0.6,0.6-0.6c1.8,0,3.42-1.16,4.78-3.2
		c-1.58-2.94-2.24-7.22-2.24-12.6c0-3.32,0.32-8.2,3.42-8.2c2.54,0,3.54,3.66,3.54,7.02C259.02,72.38,257.84,77.66,255.68,81.3z
		 M257.82,67.5c0-3.54-1.2-5.82-2.34-5.82c-1.52,0-2.22,3.2-2.22,7c0,4.86,0.58,8.7,1.76,11.36
		C256.8,76.68,257.82,71.88,257.82,67.5z"/>
	<path class="st0" d="M269.74,77.84c0.56,0.5,1.24,1.66,1.24,3c0,2.68-1.18,4.84-4.2,4.84c-1.34,0-2.3-0.56-2.92-1.36
		c-0.98,0.88-3.9,1.38-4.18,1.38c-0.02,0-0.04,0-0.04,0s0.02-0.02,0.04-0.02c-0.32,0-0.6-0.28-0.6-0.6s0.28-0.6,0.6-0.6
		c1.26,0,2.88-0.5,3.56-1.24c-0.3-0.7-0.42-1.46-0.42-2.16c0-3.04,1.74-4.58,3.68-4.58c0.94,0,1.8,0.14,2.56,0.74
		c0.14,0.1,0.22,0.28,0.22,0.46C269.44,77.7,269.62,77.74,269.74,77.84z M268.3,78.16c-0.44-0.36-0.94-0.46-1.8-0.46
		c-1.22,0-2.48,0.82-2.48,3.38c0,1.74,0.84,3.4,2.76,3.4c2.22,0,3-1.28,3-3.64c0-0.94-0.56-1.86-0.82-2.08
		c-0.14-0.12-0.22-0.28-0.22-0.46C268.58,78.3,268.42,78.26,268.3,78.16z"/>
	<path class="st0" d="M284.86,77.12c0.22,0,0.42,0.12,0.54,0.32c0.38,0.72,0.52,1.56,0.52,2.4c0,2.56-1.42,5.84-3.76,5.84
		c-1.76,0-1.94-2.56-2.18-4.16c-0.36-2.34-0.78-3.82-1.42-3.82c-0.62,0-0.88,1.4-1.5,3.82c-0.82,3.12-2.46,4.16-5.32,4.16
		c-0.32,0-0.6-0.28-0.6-0.6s0.28-0.6,0.6-0.6c2.46,0,3.46-0.56,4.16-3.28c0.46-1.74,0.6-4.7,2.66-4.7c2.08,0,2.34,3,2.62,4.86
		c0.32,2.12,0.7,3.12,0.98,3.12c1.1,0,2.56-2.2,2.56-4.64c0-0.72-0.14-1.36-0.38-1.84c-0.06-0.08-0.08-0.18-0.08-0.28
		C284.26,77.42,284.5,77.12,284.86,77.12z"/>
	<path class="st0" d="M298.76,84.08c0,0.22-0.12,0.44-0.34,0.54c-1.8,0.84-2.84,1.04-4.06,1.04c-1.04,0-2.02-0.36-2.8-0.98
		c-1.08,0.62-2.42,1-3.98,1c-0.32,0-0.6-0.28-0.6-0.6s0.28-0.6,0.6-0.6c1.24,0,2.26-0.26,3.12-0.68c-0.88-1.12-1.36-2.64-1.36-4.26
		c0-1.96,1.18-3.36,2.78-3.36c1.74,0,2.66,1.44,2.66,3.16c0,1.64-0.74,3.38-2.18,4.62c0.52,0.32,1.12,0.5,1.76,0.5
		c1.06,0,1.82-0.12,3.56-0.92c0.08-0.04,0.16-0.06,0.24-0.06C298.46,83.48,298.76,83.72,298.76,84.08z M293.58,79.34
		c0-1.36-0.56-1.96-1.46-1.96c-0.78,0-1.58,0.64-1.58,2.16c0,1.44,0.44,2.72,1.16,3.6C292.94,82.12,293.58,80.68,293.58,79.34z"/>
	<path class="st0" d="M296.64,84.48c1.18,0,3.16-0.62,3.9-1.16c-0.26-0.74-0.36-1.54-0.36-2.24c0-3.04,1.74-4.58,3.68-4.58
		c0.92,0,1.86,0.34,2.62,0.94c0.18-2.44,0.2-5.3,0.2-8.18c0-0.02,0-0.04,0-0.04c0-0.06,0-0.1,0-0.16c0-0.32,0.28-0.6,0.6-0.6
		c0.32,0,0.6,0.28,0.6,0.6v0.32c0,12.3,0.14,15.1,4.08,15.1c0.32,0,0.6,0.28,0.6,0.6s-0.28,0.6-0.6,0.6c-2.88,0-4.2-1.34-4.78-4.42
		c-0.56,2.5-1.58,4.42-3.68,4.42c-1.12,0-1.9-0.52-2.42-1.26c-1.16,0.8-3.12,1.26-4.44,1.26c-0.32,0-0.6-0.28-0.6-0.6
		S296.32,84.48,296.64,84.48z M303.86,77.7c-1.22,0-2.48,0.82-2.48,3.38c0,1.84,0.68,3.4,2.12,3.4s2.38-1.82,2.82-5.48
		C305.76,78.22,304.78,77.7,303.86,77.7z"/>
	<path class="st0" d="M332.82,77.84c0.56,0.5,1.24,1.66,1.24,3c0,2.68-1.18,4.84-4.2,4.84c-1.34,0-2.3-0.56-2.92-1.36
		c-0.98,0.88-3.9,1.38-4.18,1.38c-0.02,0-0.04,0-0.04,0s0.02-0.02,0.04-0.02c-0.32,0-0.6-0.28-0.6-0.6s0.28-0.6,0.6-0.6
		c1.26,0,2.88-0.5,3.56-1.24c-0.3-0.7-0.42-1.46-0.42-2.16c0-3.04,1.74-4.58,3.68-4.58c0.94,0,1.8,0.14,2.56,0.74
		c0.14,0.1,0.22,0.28,0.22,0.46C332.52,77.7,332.7,77.74,332.82,77.84z M331.38,78.16c-0.44-0.36-0.94-0.46-1.8-0.46
		c-1.22,0-2.48,0.82-2.48,3.38c0,1.74,0.84,3.4,2.76,3.4c2.22,0,3-1.28,3-3.64c0-0.94-0.56-1.86-0.82-2.08
		c-0.14-0.12-0.22-0.28-0.22-0.46C331.66,78.3,331.5,78.26,331.38,78.16z"/>
	<path class="st0" d="M342.74,84.26c-0.08-2.44-0.56-6.56-1.52-6.56c-0.72,0-1.26,0.76-1.7,2.2c-0.34,1.04-0.6,2.24-0.96,3.14
		c-0.6,1.38-1.64,2.64-3.74,2.64c-0.32,0-0.6-0.28-0.6-0.6s0.28-0.6,0.6-0.6c1.5,0,2.14-0.74,2.62-1.92c0.32-0.7,0.58-1.9,0.92-3.02
		c0.44-1.36,1.14-3.04,2.86-3.04c1.18,0,1.86,1.16,2.24,2.64c0.48-1.48,1.28-2.64,2.6-2.64c1.86,0,2.44,1.76,2.74,3.22
		c0.56,2.54,0.8,4.76,2.8,4.76c0.32,0,0.6,0.28,0.6,0.6s-0.28,0.6-0.6,0.6c-3.24,0-3.52-3.62-3.96-5.72
		c-0.34-1.54-0.72-2.26-1.58-2.26c-1.22,0-1.96,3.7-2.1,6.22c0,0.16,0,0.32,0,0.46c0,0.26,0,0.48,0,0.64c0,0.34-0.26,0.62-0.6,0.62
		C342.7,85.64,342.74,84.92,342.74,84.26z"/>
	<path class="st0" d="M361.26,84.08c0,0.22-0.12,0.44-0.34,0.54c-1.8,0.84-2.84,1.04-4.06,1.04c-1.04,0-2.02-0.36-2.8-0.98
		c-1.08,0.62-2.42,1-3.98,1c-0.32,0-0.6-0.28-0.6-0.6s0.28-0.6,0.6-0.6c1.24,0,2.26-0.26,3.12-0.68c-0.88-1.12-1.36-2.64-1.36-4.26
		c0-1.96,1.18-3.36,2.78-3.36c1.74,0,2.66,1.44,2.66,3.16c0,1.64-0.74,3.38-2.18,4.62c0.52,0.32,1.12,0.5,1.76,0.5
		c1.06,0,1.82-0.12,3.56-0.92c0.08-0.04,0.16-0.06,0.24-0.06C360.96,83.48,361.26,83.72,361.26,84.08z M356.08,79.34
		c0-1.36-0.56-1.96-1.46-1.96c-0.78,0-1.58,0.64-1.58,2.16c0,1.44,0.44,2.72,1.16,3.6C355.44,82.12,356.08,80.68,356.08,79.34z"/>
	<path class="st0" d="M372.36,81.38c0,0.74-0.26,1.52-0.76,2.22c0.42,0.48,1.14,0.88,3.14,0.88c0.32,0,0.6,0.28,0.6,0.6
		s-0.28,0.6-0.6,0.6c-2.14,0-3.26-0.52-3.94-1.2c-0.86,0.72-2.04,1.2-3.54,1.2c-1.36,0-2.82-0.98-2.82-2.92c0-0.04,0-0.06,0-0.1
		c-1.62,1.7-3.54,3.02-5.3,3.02c-0.32,0-0.6-0.28-0.6-0.6s0.28-0.6,0.6-0.6c1.24,0,3.04-1.12,4.64-2.86c1.1-1.2,2.06-2.64,2.7-4.04
		c-0.56-0.32-0.66-0.9-0.66-1.28c0-0.68,0.42-1.66,1.42-1.66c0.52,0,1.1,0.34,1.1,0.94c0,0.06,0,0.12-0.02,0.18
		c-0.06,0.36-0.16,0.72-0.28,1.06C370.56,77.66,372.36,79.1,372.36,81.38z M365.64,82.76c0,1.24,0.8,1.72,1.62,1.72
		c2.68,0,3.9-1.86,3.9-3.1c0-1.52-1.16-2.64-3.54-3.42c-0.64,1.48-1.62,2.96-2.74,4.22C365.28,82.1,365.64,82.38,365.64,82.76z"/>
	<path class="st0" d="M375.78,83.88c0.44,0,0.8,0.34,0.8,0.8c0,0.44-0.36,0.8-0.8,0.8s-0.8-0.36-0.8-0.8
		C374.98,84.22,375.34,83.88,375.78,83.88z"/>
	<path class="st0" d="M47.59,89.88c1.22,3.34,2.26,6.64,3.3,9.94l3.32-9.92c0.1-0.32,0.44-0.5,0.74-0.38
		c0.32,0.1,0.5,0.44,0.38,0.74l-3.82,11.52c1.08,3.5,2.18,7,3.44,10.48l7.46-22.37c0.1-0.32,0.44-0.5,0.74-0.38
		c0.32,0.1,0.5,0.44,0.38,0.74l-8,24c-0.34,1.08-1.12,0.02-1.12,0.02c-1.32-3.52-2.46-7.04-3.56-10.56l-3.52,10.54
		c-0.34,1.08-1.12,0.02-1.12,0.02c-3-8-5.04-15.96-7.94-24c-0.12-0.3,0.04-0.66,0.36-0.76c0.3-0.12,0.66,0.04,0.76,0.36
		c2.74,7.56,4.7,14.98,7.36,22.38l3.5-10.48c-1.2-3.82-2.4-7.64-3.78-11.5c-0.12-0.3,0.04-0.66,0.36-0.76
		C47.13,89.4,47.49,89.56,47.59,89.88z"/>
	<path class="st0" d="M63.47,107.34c0,3.98,0.18,6.14,4.06,6.14c0.32,0,0.6,0.28,0.6,0.6s-0.28,0.6-0.6,0.6
		c-2.94,0-4.24-1.2-4.82-3.02c-0.68,1.66-2.02,3.02-4.58,3.02c-0.32,0-0.6-0.28-0.6-0.6s0.28-0.6,0.6-0.6
		c4.24,0,4.14-4.94,4.14-7.38c0-0.32,0.26-0.6,0.6-0.6c0.32,0,0.6,0.28,0.6,0.6c0,0.04,0,0.08,0,0.12s0,0.08,0,0.14
		c0,0.12,0,0.24,0,0.4C63.47,106.94,63.47,107.16,63.47,107.34z M61.71,101.2c0-0.66,0.54-1.2,1.2-1.2c0.66,0,1.2,0.54,1.2,1.2
		s-0.54,1.2-1.2,1.2C62.25,102.4,61.71,101.86,61.71,101.2z"/>
	<path class="st0" d="M79.23,110.38c0,0.74-0.26,1.52-0.76,2.22c0.42,0.48,1.14,0.88,3.14,0.88c0.32,0,0.6,0.28,0.6,0.6
		s-0.28,0.6-0.6,0.6c-2.14,0-3.26-0.52-3.94-1.2c-0.86,0.72-2.04,1.2-3.54,1.2c-1.36,0-2.82-0.98-2.82-2.92c0-0.04,0-0.06,0-0.1
		c-1.62,1.7-3.54,3.02-5.3,3.02c-0.32,0-0.6-0.28-0.6-0.6s0.28-0.6,0.6-0.6c1.24,0,3.04-1.12,4.64-2.86c1.1-1.2,2.06-2.64,2.7-4.04
		c-0.56-0.32-0.66-0.9-0.66-1.28c0-0.68,0.42-1.66,1.42-1.66c0.52,0,1.1,0.34,1.1,0.94c0,0.06,0,0.12-0.02,0.18
		c-0.06,0.36-0.16,0.72-0.28,1.06C77.43,106.66,79.23,108.1,79.23,110.38z M72.51,111.76c0,1.24,0.8,1.72,1.62,1.72
		c2.68,0,3.9-1.86,3.9-3.1c0-1.52-1.16-2.64-3.54-3.42c-0.64,1.48-1.62,2.96-2.74,4.22C72.15,111.1,72.51,111.38,72.51,111.76z"/>
	<path class="st0" d="M84.37,103.34c0-3.7,0.1-8.64,0.64-11.26c0.2-1.04,0.74-2.6,2.28-2.6c2.84,0,3.38,2.98,3.38,5.76
		c0,3.32-1,7.6-2.62,11.3c0.5-0.62,1.08-1.04,1.72-1.04c2.44,0,2.02,3.22,2.4,4.86c0.38,1.78,0.76,3.12,3.76,3.12
		c0.32,0,0.6,0.28,0.6,0.6s-0.28,0.6-0.6,0.6c-3.66,0-4.52-2.12-4.94-4.04c-0.58-2.6-0.22-3.94-1.22-3.94
		c-0.2,0-1.16,0.98-2.12,2.66c-0.98,1.72-1.84,3.8-1.92,4.42c0,0.1,0,0.2,0,0.3c0,0.32-0.28,0.6-0.6,0.6c-0.5,0-0.64-0.46-0.6-0.96
		c0-0.38-0.02-0.86-0.02-1.4c-1.3,1.4-2.78,2.36-4.42,2.36c-0.32,0-0.6-0.28-0.6-0.6s0.28-0.6,0.6-0.6c1.32,0,2.72-0.94,4.06-2.62
		c0.1-0.12,0.22-0.26,0.32-0.38C84.41,108.28,84.37,105.94,84.37,103.34z M89.47,95.24c0-2.92-0.58-4.56-2.18-4.56
		c-0.5,0-0.9,0.56-1.1,1.64c-0.5,2.42-0.62,7.46-0.62,11.02c0,1.86,0.02,3.7,0.06,5.34C87.91,104.72,89.47,99.12,89.47,95.24z"/>
	<path class="st0" d="M99.75,107.34c0,3.98,0.18,6.14,4.06,6.14c0.32,0,0.6,0.28,0.6,0.6s-0.28,0.6-0.6,0.6
		c-2.94,0-4.24-1.2-4.82-3.02c-0.68,1.66-2.02,3.02-4.58,3.02c-0.32,0-0.6-0.28-0.6-0.6s0.28-0.6,0.6-0.6
		c4.24,0,4.14-4.94,4.14-7.38c0-0.32,0.26-0.6,0.6-0.6c0.32,0,0.6,0.28,0.6,0.6c0,0.04,0,0.08,0,0.12s0,0.08,0,0.14
		c0,0.12,0,0.24,0,0.4C99.75,106.94,99.75,107.16,99.75,107.34z M97.99,101.2c0-0.66,0.54-1.2,1.2-1.2c0.66,0,1.2,0.54,1.2,1.2
		s-0.54,1.2-1.2,1.2C98.53,102.4,97.99,101.86,97.99,101.2z"/>
	<path class="st0" d="M110.21,113.26c-0.08-2.44-0.56-6.56-1.52-6.56c-0.72,0-1.26,0.76-1.7,2.2c-0.34,1.04-0.6,2.24-0.96,3.14
		c-0.6,1.38-1.64,2.64-3.74,2.64c-0.32,0-0.6-0.28-0.6-0.6s0.28-0.6,0.6-0.6c1.5,0,2.14-0.74,2.62-1.92c0.32-0.7,0.58-1.9,0.92-3.02
		c0.44-1.36,1.14-3.04,2.86-3.04c1.18,0,1.86,1.16,2.24,2.64c0.48-1.48,1.28-2.64,2.6-2.64c1.86,0,2.44,1.76,2.74,3.22
		c0.56,2.54,0.8,4.76,2.8,4.76c0.32,0,0.6,0.28,0.6,0.6s-0.28,0.6-0.6,0.6c-3.24,0-3.52-3.62-3.96-5.72
		c-0.34-1.54-0.72-2.26-1.58-2.26c-1.22,0-1.96,3.7-2.1,6.22c0,0.16,0,0.32,0,0.46c0,0.26,0,0.48,0,0.64c0,0.34-0.26,0.62-0.6,0.62
		C110.17,114.64,110.21,113.92,110.21,113.26z"/>
	<path class="st0" d="M133.12,113.08c0,0.22-0.14,0.44-0.36,0.54c-1.5,0.68-2.9,1.48-4.12,2.4c-0.28,8.72-0.84,14.7-3.76,14.7
		c-2.48,0-3.06-3.18-3.06-5c0-4.04,2.26-7.66,5.64-10.32c0.02-0.86,0.04-1.76,0.06-2.7c-0.7,1.22-1.72,1.98-3.22,1.98
		c-1.08,0-1.84-0.48-2.36-1.18c-1.26,0.94-3.08,1.18-4.38,1.18c-0.32,0-0.6-0.28-0.6-0.6s0.28-0.6,0.6-0.6
		c1.26,0,2.9-0.32,3.82-1.06c-0.28-0.76-0.4-1.6-0.4-2.34c0-3.06,1.74-4.58,3.68-4.58c1.04,0,2.08,0.44,2.88,1.18
		c0-0.16-0.02-0.38,0.02-0.52v-0.06c0-0.32,0.28-0.6,0.6-0.6c0.32,0,0.6,0.28,0.6,0.6c0,3.08-0.02,5.9-0.08,8.42
		c1.1-0.74,2.32-1.42,3.6-1.98c0.08-0.04,0.16-0.06,0.24-0.06C132.81,112.48,133.12,112.72,133.12,113.08z M127.25,108.22
		c-0.56-0.94-1.62-1.52-2.6-1.52c-1.22,0-2.48,0.82-2.48,3.38c0,1.86,0.7,3.4,2.12,3.4c1.78,0,2.82-1.72,3.14-5.06
		C127.35,108.38,127.29,108.3,127.25,108.22z M123.01,125.72c0,1.94,0.72,3.8,1.86,3.8c1.1,0,2.2-3.62,2.52-12.5
		C124.65,119.44,123.01,122.46,123.01,125.72z"/>
	<path class="st0" d="M160.81,113.08c0,0.22-0.14,0.44-0.36,0.54c-1.36,0.62-2.6,1.34-3.72,2.14c-0.26,8.88-0.8,14.96-3.76,14.96
		c-2.48,0-3.06-3.18-3.06-5c0-4.16,2.18-7.88,5.64-10.56c0.02-0.44,0.02-0.86,0.04-1.32c-0.52,0.54-1.24,0.84-2.26,0.84
		c-1.68,0-2.32-2.4-2.58-4.14c-0.38-2.52-0.42-3.84-1.02-3.84c-0.64,0-0.92,1.4-1.5,3.8c-0.48,1.98-1.58,4.18-4.92,4.18
		c-0.32,0-0.6-0.28-0.6-0.6s0.28-0.6,0.6-0.6c2.62,0,3.3-1.46,3.76-3.28c0.42-1.76,0.6-4.7,2.66-4.7c2.14,0,1.94,3.16,2.2,4.86
		c0.32,1.98,1.06,3.12,1.4,3.12c1.68,0,2.2-1.1,2.32-4.42c0-0.96,0-1.94,0-2.96c0-0.32,0.28-0.6,0.6-0.6c0.32,0,0.6,0.28,0.6,0.6
		c0,0.38,0,0.74,0,1.12c0.02,0.04,0.02,0.08,0.02,0.14c0,2.3-0.04,4.8-0.1,6.92c0.98-0.66,2.06-1.24,3.2-1.74
		c0.08-0.04,0.16-0.06,0.24-0.06C160.51,112.48,160.81,112.72,160.81,113.08z M151.11,125.72c0,1.94,0.72,3.8,1.86,3.8
		c1.12,0,2.22-3.7,2.54-12.78C152.71,119.22,151.11,122.32,151.11,125.72z"/>
	<path class="st0" d="M168.77,106.84c0.56,0.5,1.24,1.66,1.24,3c0,2.68-1.18,4.84-4.2,4.84c-1.34,0-2.3-0.56-2.92-1.36
		c-0.98,0.88-3.9,1.38-4.18,1.38c-0.02,0-0.04,0-0.04,0s0.02-0.02,0.04-0.02c-0.32,0-0.6-0.28-0.6-0.6s0.28-0.6,0.6-0.6
		c1.26,0,2.88-0.5,3.56-1.24c-0.3-0.7-0.42-1.46-0.42-2.16c0-3.04,1.74-4.58,3.68-4.58c0.94,0,1.8,0.14,2.56,0.74
		c0.14,0.1,0.22,0.28,0.22,0.46C168.47,106.7,168.65,106.74,168.77,106.84z M167.33,107.16c-0.44-0.36-0.94-0.46-1.8-0.46
		c-1.22,0-2.48,0.82-2.48,3.38c0,1.74,0.84,3.4,2.76,3.4c2.22,0,3-1.28,3-3.64c0-0.94-0.56-1.86-0.82-2.08
		c-0.14-0.12-0.22-0.28-0.22-0.46C167.61,107.3,167.45,107.26,167.33,107.16z"/>
	<path class="st0" d="M176.07,106.98c0.04,3.28,0.46,6.5,2.86,6.5c2.64,0,2.88-3.68,2.9-7.18c0-0.06,0-0.14,0-0.2
		c0-0.32,0.26-0.6,0.6-0.6c0.32,0,0.6,0.28,0.6,0.6c0,0.06,0,0.14,0,0.2c0,4.78,0.14,7.18,4.08,7.18c0.32,0,0.6,0.28,0.6,0.6
		s-0.28,0.6-0.6,0.6c-2.7,0-4.02-1.08-4.68-2.8c-0.52,1.6-1.54,2.8-3.5,2.8c-2,0-3.02-1.3-3.54-3c-0.68,1.78-2,3-4.62,3
		c-0.32,0-0.6-0.28-0.6-0.6s0.28-0.6,0.6-0.6c3.48,0,4.04-2.5,4.1-6.38c-0.02-0.26-0.02-0.5-0.02-0.72c0-0.1,0-0.2,0-0.28
		c0-0.32,0.28-0.6,0.6-0.6c0.34,0,0.6,0.28,0.6,0.6c0,0.04,0,0.06,0,0.1C176.09,106.44,176.07,106.72,176.07,106.98z"/>
	<path class="st0" d="M213.23,114.68c-2.84,0-4.1-1.14-4.7-3.1c-0.62,1.98-1.78,3.1-3.76,3.1c-1.06,0-1.82-0.46-2.32-1.14
		c-1.38,0.8-3.28,1.14-4.54,1.14c-0.32,0-0.6-0.28-0.6-0.6s0.28-0.6,0.6-0.6c1.06,0,2.86-0.36,3.96-0.98
		c-0.3-0.8-0.42-1.66-0.42-2.42c0-3.06,1.74-4.58,3.68-4.58c1.02,0,2.04,0.42,2.82,1.12c0-0.16,0-0.34,0-0.52
		c0-0.32,0.26-0.6,0.6-0.6c0.32,0,0.6,0.28,0.6,0.6c0,0.06,0,0.12,0,0.18c0.2,5.26,0.3,7.2,4.08,7.2c0.32,0,0.6,0.28,0.6,0.6
		S213.55,114.68,213.23,114.68z M207.71,108.22c-0.54-0.94-1.6-1.52-2.58-1.52c-1.22,0-2.48,0.82-2.48,3.38c0,1.86,0.7,3.4,2.12,3.4
		c1.84,0,2.82-1.3,3.1-5.08C207.81,108.36,207.75,108.28,207.71,108.22z"/>
	<path class="st0" d="M235.07,113.08c0,0.22-0.14,0.44-0.36,0.54c-1.36,0.62-2.6,1.34-3.72,2.14c-0.26,8.88-0.8,14.96-3.76,14.96
		c-2.48,0-3.06-3.18-3.06-5c0-4.16,2.18-7.88,5.64-10.56c0.04-1.48,0.06-3.02,0.08-4.66c-1,2.14-2.76,4.18-5.86,4.18
		c-0.32,0-0.6-0.28-0.6-0.6s0.28-0.6,0.6-0.6c4.16,0,5.48-4.86,5.88-7.2c0-0.06,0-0.12,0-0.18c0-0.32,0.28-0.6,0.6-0.6
		s0.6,0.28,0.6,0.6c0,0.04,0,0.1,0,0.14s0,0.08,0,0.12c0,2.9-0.02,5.54-0.08,7.92c0.98-0.66,2.06-1.24,3.2-1.74
		c0.08-0.04,0.16-0.06,0.24-0.06C234.77,112.48,235.07,112.72,235.07,113.08z M225.37,125.72c0,1.94,0.72,3.8,1.86,3.8
		c1.12,0,2.22-3.7,2.54-12.78C226.97,119.22,225.37,122.32,225.37,125.72z M229.51,101.2c0-0.66,0.54-1.2,1.2-1.2s1.2,0.54,1.2,1.2
		s-0.54,1.2-1.2,1.2S229.51,101.86,229.51,101.2z"/>
	<path class="st0" d="M243.01,106.84c0.56,0.5,1.24,1.66,1.24,3c0,2.68-1.18,4.84-4.2,4.84c-1.34,0-2.3-0.56-2.92-1.36
		c-0.98,0.88-3.9,1.38-4.18,1.38c-0.02,0-0.04,0-0.04,0s0.02-0.02,0.04-0.02c-0.32,0-0.6-0.28-0.6-0.6s0.28-0.6,0.6-0.6
		c1.26,0,2.88-0.5,3.56-1.24c-0.3-0.7-0.42-1.46-0.42-2.16c0-3.04,1.74-4.58,3.68-4.58c0.94,0,1.8,0.14,2.56,0.74
		c0.14,0.1,0.22,0.28,0.22,0.46C242.71,106.7,242.89,106.74,243.01,106.84z M241.57,107.16c-0.44-0.36-0.94-0.46-1.8-0.46
		c-1.22,0-2.48,0.82-2.48,3.38c0,1.74,0.84,3.4,2.76,3.4c2.22,0,3-1.28,3-3.64c0-0.94-0.56-1.86-0.82-2.08
		c-0.14-0.12-0.22-0.28-0.22-0.46C241.85,107.3,241.69,107.26,241.57,107.16z"/>
	<path class="st0" d="M262.51,113.08c0,0.22-0.14,0.44-0.36,0.54c-1.36,0.62-2.6,1.34-3.72,2.14c-0.26,8.88-0.8,14.96-3.76,14.96
		c-2.48,0-3.06-3.18-3.06-5c0-4.16,2.18-7.88,5.64-10.56c0.02-0.44,0.02-0.86,0.04-1.32c-0.52,0.54-1.24,0.84-2.26,0.84
		c-1.68,0-2.32-2.4-2.58-4.14c-0.38-2.52-0.42-3.84-1.02-3.84c-0.64,0-0.92,1.4-1.5,3.8c-0.48,1.98-1.58,4.18-4.92,4.18
		c-0.32,0-0.6-0.28-0.6-0.6s0.28-0.6,0.6-0.6c2.62,0,3.3-1.46,3.76-3.28c0.42-1.76,0.6-4.7,2.66-4.7c2.14,0,1.94,3.16,2.2,4.86
		c0.32,1.98,1.06,3.12,1.4,3.12c1.68,0,2.2-1.1,2.32-4.42c0-0.96,0-1.94,0-2.96c0-0.32,0.28-0.6,0.6-0.6c0.32,0,0.6,0.28,0.6,0.6
		c0,0.38,0,0.74,0,1.12c0.02,0.04,0.02,0.08,0.02,0.14c0,2.3-0.04,4.8-0.1,6.92c0.98-0.66,2.06-1.24,3.2-1.74
		c0.08-0.04,0.16-0.06,0.24-0.06C262.21,112.48,262.51,112.72,262.51,113.08z M252.81,125.72c0,1.94,0.72,3.8,1.86,3.8
		c1.12,0,2.22-3.7,2.54-12.78C254.41,119.22,252.81,122.32,252.81,125.72z"/>
	<path class="st0" d="M269.93,124.7c0,3.62-0.84,6.02-3.34,6.02c-2.12,0-2.4-3.84-2.6-7.18c-0.18-2.86-0.2-6.16-0.2-8.82
		c0-0.32,0-0.64,0-0.94c-1.02,0.56-2.14,0.9-3.38,0.9c-0.32,0-0.6-0.28-0.6-0.6s0.28-0.6,0.6-0.6c1.26,0,2.38-0.4,3.38-1.14
		c0.02-0.84,0.02-1.72,0.02-2.2v-1.44c0-1.22-0.06-3.88-0.06-6.78c0-2.22,0.04-4.6,0.16-6.66c0.14-2.16,0.38-5.8,3-5.8
		c3.2,0,3.72,4.34,3.72,6.96c0,5.72-1.56,12.22-4.86,15.76c0.02,0,0.06,0.02,0.08,0.04c0.42,0.38,2.42,1.26,5.74,1.26
		c0.34,0,0.6,0.28,0.6,0.6s-0.26,0.6-0.6,0.6c-1.66,0-3.02-0.18-4.08-0.46C269.03,116.94,269.93,121.58,269.93,124.7z M269.43,96.42
		c0-2.9-0.74-5.76-2.52-5.76c-1.16,0-1.64,2.06-1.8,4.68c-0.12,2.02-0.16,4.36-0.16,6.58c0,2.9,0.06,5.52,0.06,6.78v1.44
		c0,0.28,0,0.66,0,1.1C267.89,108.04,269.43,101.9,269.43,96.42z M264.99,114.72c0,2.66,0.02,5.92,0.2,8.74
		c0.24,3.98,0.96,6.06,1.4,6.06c1.34,0,2.14-1.12,2.14-4.82c0-4.26-2.04-10.84-3.68-11.46c-0.02,0-0.04-0.02-0.06-0.02
		C264.99,113.68,264.99,114.2,264.99,114.72z"/>
	<path class="st0" d="M275.37,106.98c0.04,3.28,0.46,6.5,2.86,6.5c2.64,0,2.88-3.68,2.9-7.18c0-0.06,0-0.14,0-0.2
		c0-0.32,0.26-0.6,0.6-0.6c0.32,0,0.6,0.28,0.6,0.6c0,0.06,0,0.14,0,0.2c0,4.78,0.14,7.18,4.08,7.18c0.32,0,0.6,0.28,0.6,0.6
		s-0.28,0.6-0.6,0.6c-2.7,0-4.02-1.08-4.68-2.8c-0.52,1.6-1.54,2.8-3.5,2.8c-2,0-3.02-1.3-3.54-3c-0.68,1.78-2,3-4.62,3
		c-0.32,0-0.6-0.28-0.6-0.6s0.28-0.6,0.6-0.6c3.48,0,4.04-2.5,4.1-6.38c-0.02-0.26-0.02-0.5-0.02-0.72c0-0.1,0-0.2,0-0.28
		c0-0.32,0.28-0.6,0.6-0.6c0.34,0,0.6,0.28,0.6,0.6c0,0.04,0,0.06,0,0.1C275.39,106.44,275.37,106.72,275.37,106.98z"/>
	<path class="st0" d="M291.05,110.3c1.32,2.12,3.08,3.18,5.52,3.18c0.32,0,0.6,0.28,0.6,0.6s-0.28,0.6-0.6,0.6
		c-2.64,0-4.76-1.16-6.22-3.28c-1.42,1.94-3.26,3.28-5.46,3.28c-0.32,0-0.6-0.28-0.6-0.6s0.28-0.6,0.6-0.6c1.8,0,3.42-1.16,4.78-3.2
		c-1.58-2.94-2.24-7.22-2.24-12.6c0-3.32,0.32-8.2,3.42-8.2c2.54,0,3.54,3.66,3.54,7.02C294.39,101.38,293.21,106.66,291.05,110.3z
		 M293.19,96.5c0-3.54-1.2-5.82-2.34-5.82c-1.52,0-2.22,3.2-2.22,7c0,4.86,0.58,8.7,1.76,11.36
		C292.17,105.68,293.19,100.88,293.19,96.5z"/>
	<path class="st0" d="M324.87,113.08c0,0.22-0.14,0.44-0.36,0.54c-1.36,0.62-2.6,1.34-3.72,2.14c-0.26,8.88-0.8,14.96-3.76,14.96
		c-2.48,0-3.06-3.18-3.06-5c0-4.16,2.18-7.88,5.64-10.56c0.02-0.44,0.02-0.86,0.04-1.32c-0.52,0.54-1.24,0.84-2.26,0.84
		c-1.68,0-2.32-2.4-2.58-4.14c-0.38-2.52-0.42-3.84-1.02-3.84c-0.64,0-0.92,1.4-1.5,3.8c-0.48,1.98-1.58,4.18-4.92,4.18
		c-0.32,0-0.6-0.28-0.6-0.6s0.28-0.6,0.6-0.6c2.62,0,3.3-1.46,3.76-3.28c0.42-1.76,0.6-4.7,2.66-4.7c2.14,0,1.94,3.16,2.2,4.86
		c0.32,1.98,1.06,3.12,1.4,3.12c1.68,0,2.2-1.1,2.32-4.42c0-0.96,0-1.94,0-2.96c0-0.32,0.28-0.6,0.6-0.6c0.32,0,0.6,0.28,0.6,0.6
		c0,0.38,0,0.74,0,1.12c0.02,0.04,0.02,0.08,0.02,0.14c0,2.3-0.04,4.8-0.1,6.92c0.98-0.66,2.06-1.24,3.2-1.74
		c0.08-0.04,0.16-0.06,0.24-0.06C324.57,112.48,324.87,112.72,324.87,113.08z M315.17,125.72c0,1.94,0.72,3.8,1.86,3.8
		c1.12,0,2.22-3.7,2.54-12.78C316.77,119.22,315.17,122.32,315.17,125.72z"/>
	<path class="st0" d="M333.95,113.08c0,0.22-0.12,0.44-0.34,0.54c-1.8,0.84-2.84,1.04-4.06,1.04c-1.04,0-2.02-0.36-2.8-0.98
		c-1.08,0.62-2.42,1-3.98,1c-0.32,0-0.6-0.28-0.6-0.6s0.28-0.6,0.6-0.6c1.24,0,2.26-0.26,3.12-0.68c-0.88-1.12-1.36-2.64-1.36-4.26
		c0-1.96,1.18-3.36,2.78-3.36c1.74,0,2.66,1.44,2.66,3.16c0,1.64-0.74,3.38-2.18,4.62c0.52,0.32,1.12,0.5,1.76,0.5
		c1.06,0,1.82-0.12,3.56-0.92c0.08-0.04,0.16-0.06,0.24-0.06C333.65,112.48,333.95,112.72,333.95,113.08z M328.77,108.34
		c0-1.36-0.56-1.96-1.46-1.96c-0.78,0-1.58,0.64-1.58,2.16c0,1.44,0.44,2.72,1.16,3.6C328.13,111.12,328.77,109.68,328.77,108.34z"
		/>
	<path class="st0" d="M347.15,114.68c-2.84,0-4.1-1.14-4.7-3.1c-0.62,1.98-1.78,3.1-3.76,3.1c-1.06,0-1.82-0.46-2.32-1.14
		c-1.38,0.8-3.28,1.14-4.54,1.14c-0.32,0-0.6-0.28-0.6-0.6s0.28-0.6,0.6-0.6c1.06,0,2.86-0.36,3.96-0.98
		c-0.3-0.8-0.42-1.66-0.42-2.42c0-3.06,1.74-4.58,3.68-4.58c1.02,0,2.04,0.42,2.82,1.12c0-0.16,0-0.34,0-0.52
		c0-0.32,0.26-0.6,0.6-0.6c0.32,0,0.6,0.28,0.6,0.6c0,0.06,0,0.12,0,0.18c0.2,5.26,0.3,7.2,4.08,7.2c0.32,0,0.6,0.28,0.6,0.6
		S347.47,114.68,347.15,114.68z M341.63,108.22c-0.54-0.94-1.6-1.52-2.58-1.52c-1.22,0-2.48,0.82-2.48,3.38c0,1.86,0.7,3.4,2.12,3.4
		c1.84,0,2.82-1.3,3.1-5.08C341.73,108.36,341.67,108.28,341.63,108.22z"/>
	<path class="st0" d="M359.23,114.68c-3.7,0-4.28-2.32-4.28-5.32c0-1.42-0.1-2.66-2-2.66c-0.02,0-0.04,0-0.04,0
		c-0.78,0-1.4-0.1-1.84-0.24c0,0.12,0,0.16,0,0.26c0,4.28-1.42,7.96-5.44,7.96c-0.32,0-0.6-0.28-0.6-0.6s0.28-0.6,0.6-0.6
		c2.96,0,4.24-2.56,4.24-6.76c0-0.54-0.06-1.14-0.22-1.76c-0.22-0.64,0.86-0.96,1.16-0.32c0.06,0.14,0.22,0.86,2.1,0.86
		c0,0,0.02,0,0.04,0c2.96,0,3.2,2.48,3.2,3.86c0,2.92,0.24,4.12,3.08,4.12c0.32,0,0.6,0.28,0.6,0.6S359.55,114.68,359.23,114.68z"/>
	<path class="st0" d="M360.27,112.88c0.44,0,0.8,0.34,0.8,0.8c0,0.44-0.36,0.8-0.8,0.8s-0.8-0.36-0.8-0.8
		C359.47,113.22,359.83,112.88,360.27,112.88z"/>
</g>
<g>
</g>
<g>
</g>
<g>
</g>
<g>
</g>
<g>
</g>
<g>
</g>
<g>
</g>
<g>
</g>
<g>
</g>
<g>
</g>
<g>
</g>
<g>
</g>
<g>
</g>
<g>
</g>
<g>
</g>
</svg>
